<?xml version="1.0" encoding="UTF-8"?>
<svg xmlns="http://www.w3.org/2000/svg" xmlns:xlink="http://www.w3.org/1999/xlink" viewBox="0 0 600 270">
  <defs>
    <style>
      .cls-1 {
        fill: url(#_Áåçûìÿííûé_ãðàäèåíò_207);
        opacity: .45;
      }

      .cls-1, .cls-2, .cls-3, .cls-4, .cls-5, .cls-6, .cls-7, .cls-8, .cls-9, .cls-10, .cls-11, .cls-12, .cls-13, .cls-14, .cls-15, .cls-16, .cls-17 {
        mix-blend-mode: screen;
      }

      .cls-18 {
        fill: url(#_Áåçûìÿííûé_ãðàäèåíò_17-2);
      }

      .cls-19 {
        fill: url(#_Áåçûìÿííûé_ãðàäèåíò_267-4);
      }

      .cls-19, .cls-2, .cls-20, .cls-21, .cls-22, .cls-23, .cls-4, .cls-24, .cls-6, .cls-25, .cls-26, .cls-27, .cls-28, .cls-29, .cls-30, .cls-31, .cls-7, .cls-32, .cls-33, .cls-8, .cls-34, .cls-35, .cls-36, .cls-10, .cls-37, .cls-38, .cls-39, .cls-40, .cls-11, .cls-41, .cls-42, .cls-43, .cls-44, .cls-45, .cls-46, .cls-47, .cls-12, .cls-48, .cls-49, .cls-50, .cls-51, .cls-52, .cls-53, .cls-54, .cls-55, .cls-13, .cls-56, .cls-57, .cls-14, .cls-15, .cls-58, .cls-59, .cls-60, .cls-16, .cls-61, .cls-62, .cls-63, .cls-64, .cls-65, .cls-17 {
        fill-rule: evenodd;
      }

      .cls-66 {
        fill: url(#_Áåçûìÿííûé_ãðàäèåíò_326);
      }

      .cls-66, .cls-67, .cls-68, .cls-69, .cls-70, .cls-23, .cls-71, .cls-72, .cls-73, .cls-74, .cls-25, .cls-26, .cls-75, .cls-76, .cls-27, .cls-77, .cls-78, .cls-32, .cls-79, .cls-80, .cls-33, .cls-81, .cls-82, .cls-83, .cls-84, .cls-85, .cls-86, .cls-39, .cls-40, .cls-87, .cls-88, .cls-89, .cls-90, .cls-91, .cls-45, .cls-47, .cls-92, .cls-93, .cls-94, .cls-95, .cls-96, .cls-97, .cls-98, .cls-60, .cls-99, .cls-63, .cls-100, .cls-101 {
        mix-blend-mode: multiply;
      }

      .cls-2 {
        fill: url(#_Áåçûìÿííûé_ãðàäèåíò_120);
      }

      .cls-2, .cls-8, .cls-14, .cls-17 {
        opacity: .76;
      }

      .cls-67 {
        fill: url(#_Áåçûìÿííûé_ãðàäèåíò_270);
      }

      .cls-67, .cls-68, .cls-70, .cls-71, .cls-24, .cls-73, .cls-74, .cls-76, .cls-9, .cls-81, .cls-83, .cls-84, .cls-87, .cls-90, .cls-44, .cls-93, .cls-98, .cls-60, .cls-102, .cls-101 {
        opacity: .5;
      }

      .cls-20 {
        fill: url(#_Áåçûìÿííûé_ãðàäèåíò_267-14);
      }

      .cls-68 {
        fill: url(#_Áåçûìÿííûé_ãðàäèåíò_126-9);
      }

      .cls-21 {
        fill: url(#_Áåçûìÿííûé_ãðàäèåíò_267-5);
      }

      .cls-103 {
        fill: #fff8e8;
      }

      .cls-104 {
        mask: url(#mask-23);
      }

      .cls-105 {
        mask: url(#mask-27);
      }

      .cls-106 {
        mask: url(#mask-10);
      }

      .cls-69 {
        fill: url(#_Áåçûìÿííûé_ãðàäèåíò_325);
      }

      .cls-3, .cls-23, .cls-6, .cls-25, .cls-32, .cls-10, .cls-40, .cls-11, .cls-47, .cls-50, .cls-13, .cls-15 {
        opacity: .2;
      }

      .cls-22 {
        fill: url(#_Áåçûìÿííûé_ãðàäèåíò_267-13);
      }

      .cls-107 {
        mask: url(#mask-26);
      }

      .cls-70 {
        fill: url(#_Áåçûìÿííûé_ãðàäèåíò_270-2);
      }

      .cls-108 {
        filter: url(#luminosity-noclip-20);
      }

      .cls-109 {
        fill: url(#_Áåçûìÿííûé_ãðàäèåíò_14-4);
      }

      .cls-110 {
        mask: url(#mask-17);
      }

      .cls-23 {
        fill: url(#linear-gradient-5);
      }

      .cls-4 {
        fill: url(#_Áåçûìÿííûé_ãðàäèåíò_123);
      }

      .cls-71 {
        fill: url(#_Áåçûìÿííûé_ãðàäèåíò_126-7);
      }

      .cls-111 {
        fill: url(#_Áåçûìÿííûé_ãðàäèåíò_14-3);
      }

      .cls-24, .cls-44, .cls-53, .cls-57 {
        mix-blend-mode: soft-light;
      }

      .cls-24, .cls-57, .cls-65 {
        fill: #fff;
      }

      .cls-112 {
        filter: url(#luminosity-noclip-24);
      }

      .cls-72 {
        fill: url(#_Áåçûìÿííûé_ãðàäèåíò_338);
      }

      .cls-5, .cls-9, .cls-113, .cls-16 {
        fill: #ffea27;
      }

      .cls-5, .cls-45, .cls-96 {
        opacity: .3;
      }

      .cls-114 {
        mask: url(#mask-2);
      }

      .cls-115 {
        fill: url(#linear-gradient-6);
      }

      .cls-116 {
        mask: url(#mask-34);
      }

      .cls-117 {
        mask: url(#mask-33);
      }

      .cls-118 {
        isolation: isolate;
      }

      .cls-73 {
        fill: url(#_Áåçûìÿííûé_ãðàäèåíò_126-8);
      }

      .cls-6 {
        fill: url(#_Áåçûìÿííûé_ãðàäèåíò_267-17);
      }

      .cls-74, .cls-75 {
        fill: #bf866d;
      }

      .cls-119 {
        fill: url(#_Áåçûìÿííûé_ãðàäèåíò_13-2);
      }

      .cls-25 {
        fill: url(#linear-gradient-4);
      }

      .cls-26 {
        fill: url(#_Áåçûìÿííûé_ãðàäèåíò_341);
      }

      .cls-120 {
        filter: url(#luminosity-noclip-22);
      }

      .cls-75 {
        opacity: .17;
      }

      .cls-76 {
        fill: url(#_Áåçûìÿííûé_ãðàäèåíò_126-10);
      }

      .cls-121 {
        mask: url(#mask-13);
      }

      .cls-27, .cls-63, .cls-100 {
        opacity: .49;
      }

      .cls-27, .cls-100 {
        fill: #67cde8;
      }

      .cls-77 {
        fill: url(#_Áåçûìÿííûé_ãðàäèåíò_335);
      }

      .cls-122 {
        mask: url(#mask-3);
      }

      .cls-28 {
        fill: #7aa9f7;
      }

      .cls-29 {
        fill: url(#_Áåçûìÿííûé_ãðàäèåíò_267);
      }

      .cls-30 {
        fill: url(#_Áåçûìÿííûé_ãðàäèåíò_267-9);
      }

      .cls-123 {
        fill: url(#_Áåçûìÿííûé_ãðàäèåíò_13);
      }

      .cls-124 {
        mask: url(#mask-31);
      }

      .cls-78 {
        fill: url(#_Áåçûìÿííûé_ãðàäèåíò_322);
      }

      .cls-125 {
        mask: url(#mask-30);
      }

      .cls-31 {
        fill: #a8b4ec;
      }

      .cls-7 {
        fill: url(#_Áåçûìÿííûé_ãðàäèåíò_123-2);
      }

      .cls-126 {
        fill: url(#_Áåçûìÿííûé_ãðàäèåíò_14);
      }

      .cls-127 {
        mask: url(#mask-32);
      }

      .cls-32 {
        fill: url(#linear-gradient-2);
      }

      .cls-128 {
        mask: url(#mask-9);
      }

      .cls-129 {
        filter: url(#luminosity-noclip-34);
      }

      .cls-79 {
        fill: url(#_Áåçûìÿííûé_ãðàäèåíò_126-2);
      }

      .cls-79, .cls-80 {
        opacity: .4;
      }

      .cls-80 {
        fill: url(#_Áåçûìÿííûé_ãðàäèåíò_126-3);
      }

      .cls-33 {
        fill: url(#_Áåçûìÿííûé_ãðàäèåíò_340);
      }

      .cls-130 {
        mask: url(#mask-12);
      }

      .cls-131 {
        filter: url(#luminosity-noclip-14);
      }

      .cls-8 {
        fill: url(#_Áåçûìÿííûé_ãðàäèåíò_120-2);
      }

      .cls-34 {
        fill: url(#_Áåçûìÿííûé_ãðàäèåíò_169-4);
      }

      .cls-132 {
        mask: url(#mask-5);
      }

      .cls-35 {
        fill: #4f8df4;
      }

      .cls-81 {
        fill: url(#_Áåçûìÿííûé_ãðàäèåíò_126-13);
      }

      .cls-82 {
        fill: url(#_Áåçûìÿííûé_ãðàäèåíò_339);
      }

      .cls-36 {
        fill: url(#_Áåçûìÿííûé_ãðàäèåíò_267-6);
      }

      .cls-83 {
        fill: url(#_Áåçûìÿííûé_ãðàäèåíò_126-12);
      }

      .cls-84 {
        fill: url(#_Áåçûìÿííûé_ãðàäèåíò_16);
      }

      .cls-10 {
        fill: url(#_Áåçûìÿííûé_ãðàäèåíò_267-20);
      }

      .cls-133 {
        filter: url(#luminosity-noclip-32);
      }

      .cls-37 {
        fill: url(#_Áåçûìÿííûé_ãðàäèåíò_267-10);
      }

      .cls-134 {
        filter: url(#luminosity-noclip-12);
      }

      .cls-85 {
        fill: url(#_Áåçûìÿííûé_ãðàäèåíò_336);
      }

      .cls-38 {
        fill: url(#_Áåçûìÿííûé_ãðàäèåíò_267-11);
      }

      .cls-135 {
        mask: url(#mask-35);
      }

      .cls-86 {
        fill: url(#_Áåçûìÿííûé_ãðàäèåíò_330);
      }

      .cls-136 {
        mask: url(#mask-20);
      }

      .cls-137 {
        fill: url(#_Áåçûìÿííûé_ãðàäèåíò_14-5);
      }

      .cls-39 {
        fill: url(#_Áåçûìÿííûé_ãðàäèåíò_126);
        opacity: .22;
      }

      .cls-138 {
        filter: url(#luminosity-noclip-16);
      }

      .cls-139 {
        fill: url(#_Áåçûìÿííûé_ãðàäèåíò_17-3);
      }

      .cls-140 {
        filter: url(#luminosity-noclip-4);
      }

      .cls-40 {
        fill: #3d4fbb;
      }

      .cls-87 {
        fill: url(#_Áåçûìÿííûé_ãðàäèåíò_126-4);
      }

      .cls-88 {
        fill: url(#_Áåçûìÿííûé_ãðàäèåíò_324);
      }

      .cls-11 {
        fill: url(#_Áåçûìÿííûé_ãðàäèåíò_267-18);
      }

      .cls-141 {
        mask: url(#mask-25);
      }

      .cls-142 {
        filter: url(#luminosity-noclip-8);
      }

      .cls-143 {
        mask: url(#mask-8);
      }

      .cls-144 {
        filter: url(#luminosity-noclip-6);
      }

      .cls-89 {
        fill: url(#_Áåçûìÿííûé_ãðàäèåíò_323);
      }

      .cls-41 {
        fill: #8596e4;
      }

      .cls-145 {
        filter: url(#luminosity-noclip-18);
      }

      .cls-90 {
        fill: url(#_Áåçûìÿííûé_ãðàäèåíò_126-11);
      }

      .cls-91 {
        fill: url(#_Áåçûìÿííûé_ãðàäèåíò_329);
      }

      .cls-42 {
        fill: url(#_Áåçûìÿííûé_ãðàäèåíò_169-2);
      }

      .cls-43 {
        fill: url(#_Áåçûìÿííûé_ãðàäèåíò_267-7);
      }

      .cls-146 {
        mask: url(#mask-4);
      }

      .cls-44, .cls-53 {
        fill: #cfffba;
      }

      .cls-147 {
        mask: url(#mask-24);
      }

      .cls-45 {
        fill: url(#_Áåçûìÿííûé_ãðàäèåíò_101);
      }

      .cls-46 {
        fill: url(#_Áåçûìÿííûé_ãðàäèåíò_170);
      }

      .cls-148 {
        clip-path: url(#clippath);
      }

      .cls-47 {
        fill: url(#linear-gradient-3);
      }

      .cls-149 {
        mask: url(#mask-19);
      }

      .cls-92 {
        fill: url(#_Áåçûìÿííûé_ãðàäèåíò_342);
      }

      .cls-150 {
        mask: url(#mask-15);
      }

      .cls-12 {
        fill: url(#_Áåçûìÿííûé_ãðàäèåíò_44-2);
      }

      .cls-93 {
        fill: url(#_Áåçûìÿííûé_ãðàäèåíò_126-14);
      }

      .cls-48 {
        fill: url(#_Áåçûìÿííûé_ãðàäèåíò_169);
      }

      .cls-151 {
        filter: url(#luminosity-noclip-26);
      }

      .cls-152 {
        fill: url(#_Áåçûìÿííûé_ãðàäèåíò_98);
      }

      .cls-153 {
        fill: url(#_Áåçûìÿííûé_ãðàäèåíò_291-2);
      }

      .cls-154 {
        fill: none;
      }

      .cls-49 {
        fill: url(#_Áåçûìÿííûé_ãðàäèåíò_170-2);
      }

      .cls-50 {
        fill: #223995;
      }

      .cls-51 {
        fill: url(#_Áåçûìÿííûé_ãðàäèåíò_267-15);
      }

      .cls-155 {
        mask: url(#mask-6);
      }

      .cls-52, .cls-63 {
        fill: #3cb3dd;
      }

      .cls-156 {
        fill: #d8d01a;
      }

      .cls-53 {
        opacity: .8;
      }

      .cls-157 {
        fill: url(#_Áåçûìÿííûé_ãðàäèåíò_30);
      }

      .cls-94 {
        fill: url(#_Áåçûìÿííûé_ãðàäèåíò_331);
      }

      .cls-95 {
        fill: url(#_Áåçûìÿííûé_ãðàäèåíò_328);
      }

      .cls-158 {
        mask: url(#mask-16);
      }

      .cls-159 {
        fill: url(#_Áåçûìÿííûé_ãðàäèåíò_30-2);
      }

      .cls-96, .cls-60 {
        fill: #ce3e97;
      }

      .cls-160 {
        mask: url(#mask-18);
      }

      .cls-54 {
        fill: url(#_Áåçûìÿííûé_ãðàäèåíò_125);
      }

      .cls-55 {
        fill: url(#_Áåçûìÿííûé_ãðàäèåíò_267-3);
      }

      .cls-161 {
        fill: url(#_Áåçûìÿííûé_ãðàäèåíò_291);
      }

      .cls-13 {
        fill: url(#_Áåçûìÿííûé_ãðàäèåíò_267-16);
      }

      .cls-162 {
        filter: url(#luminosity-noclip-2);
      }

      .cls-163 {
        mask: url(#mask-1);
      }

      .cls-164 {
        mask: url(#mask);
      }

      .cls-56 {
        fill: url(#_Áåçûìÿííûé_ãðàäèåíò_267-2);
      }

      .cls-165 {
        mask: url(#mask-22);
      }

      .cls-166 {
        mask: url(#mask-29);
      }

      .cls-167 {
        fill: url(#linear-gradient);
      }

      .cls-97 {
        fill: url(#_Áåçûìÿííûé_ãðàäèåíò_327);
      }

      .cls-168 {
        mask: url(#mask-7);
      }

      .cls-169 {
        filter: url(#luminosity-noclip-30);
      }

      .cls-98 {
        fill: url(#_Áåçûìÿííûé_ãðàäèåíò_126-5);
      }

      .cls-170 {
        filter: url(#luminosity-noclip-28);
      }

      .cls-171 {
        fill: url(#_Áåçûìÿííûé_ãðàäèåíò_14-2);
      }

      .cls-14 {
        fill: url(#_Áåçûìÿííûé_ãðàäèåíò_44);
      }

      .cls-172 {
        fill: url(#_Áåçûìÿííûé_ãðàäèåíò_17);
      }

      .cls-15 {
        fill: url(#_Áåçûìÿííûé_ãðàäèåíò_267-19);
      }

      .cls-58 {
        fill: url(#_Áåçûìÿííûé_ãðàäèåíò_267-12);
      }

      .cls-59 {
        fill: url(#_Áåçûìÿííûé_ãðàäèåíò_169-3);
      }

      .cls-173 {
        mask: url(#mask-14);
      }

      .cls-102 {
        fill: url(#_Áåçûìÿííûé_ãðàäèåíò_377);
        mix-blend-mode: overlay;
      }

      .cls-99 {
        fill: url(#_Áåçûìÿííûé_ãðàäèåíò_332);
      }

      .cls-16 {
        opacity: .73;
      }

      .cls-174 {
        mask: url(#mask-21);
      }

      .cls-61 {
        fill: url(#_Áåçûìÿííûé_ãðàäèåíò_170-3);
      }

      .cls-175 {
        mask: url(#mask-11);
      }

      .cls-176 {
        mask: url(#mask-28);
      }

      .cls-62 {
        fill: url(#_Áåçûìÿííûé_ãðàäèåíò_96);
      }

      .cls-64 {
        fill: url(#_Áåçûìÿííûé_ãðàäèåíò_267-8);
      }

      .cls-177 {
        fill: url(#_Áåçûìÿííûé_ãðàäèåíò_98-2);
      }

      .cls-178 {
        filter: url(#luminosity-noclip-10);
      }

      .cls-65 {
        opacity: .53;
      }

      .cls-17 {
        fill: url(#_Áåçûìÿííûé_ãðàäèåíò_44-3);
      }

      .cls-101 {
        fill: url(#_Áåçûìÿííûé_ãðàäèåíò_126-6);
      }

      .cls-179 {
        filter: url(#luminosity-noclip-36);
      }
    </style>
    <clipPath id="clippath">
      <rect class="cls-154" width="600" height="270"/>
    </clipPath>
    <linearGradient id="linear-gradient" x1="297.67" y1="-3.09" x2="297.15" y2="129.67" gradientUnits="userSpaceOnUse">
      <stop offset="0" stop-color="#4d97ff"/>
      <stop offset=".12" stop-color="#64a8fd"/>
      <stop offset=".41" stop-color="#94cdfa"/>
      <stop offset=".66" stop-color="#b6e8f8"/>
      <stop offset=".87" stop-color="#ccf9f7"/>
      <stop offset="1" stop-color="#d4fff7"/>
    </linearGradient>
    <linearGradient id="_Áåçûìÿííûé_ãðàäèåíò_96" data-name="Áåçûìÿííûé ãðàäèåíò 96" x1="271.37" y1="202.21" x2="271.37" y2="46" gradientUnits="userSpaceOnUse">
      <stop offset="0" stop-color="#aefbff"/>
      <stop offset="1" stop-color="#639fff"/>
    </linearGradient>
    <linearGradient id="_Áåçûìÿííûé_ãðàäèåíò_169" data-name="Áåçûìÿííûé ãðàäèåíò 169" x1="341.65" y1="90.37" x2="341.65" y2="8.67" gradientUnits="userSpaceOnUse">
      <stop offset="0" stop-color="#c6ccf3"/>
      <stop offset=".26" stop-color="#ced3f4"/>
      <stop offset=".67" stop-color="#e6e9f9"/>
      <stop offset="1" stop-color="#fff"/>
    </linearGradient>
    <linearGradient id="_Áåçûìÿííûé_ãðàäèåíò_267" data-name="Áåçûìÿííûé ãðàäèåíò 267" x1="392.27" y1="85.63" x2="398.42" y2="77.37" gradientUnits="userSpaceOnUse">
      <stop offset="0" stop-color="#3e0227"/>
      <stop offset=".14" stop-color="#410327"/>
      <stop offset=".29" stop-color="#4d0627"/>
      <stop offset=".43" stop-color="#620d27"/>
      <stop offset=".58" stop-color="#7e1527"/>
      <stop offset=".72" stop-color="#a22028"/>
      <stop offset=".86" stop-color="#ce2e29"/>
      <stop offset="1" stop-color="#ff3d2a"/>
    </linearGradient>
    <linearGradient id="_Áåçûìÿííûé_ãðàäèåíò_267-2" data-name="Áåçûìÿííûé ãðàäèåíò 267" x1="386.69" y1="13.44" x2="379.48" y2="93.31" xlink:href="#_Áåçûìÿííûé_ãðàäèåíò_267"/>
    <linearGradient id="_Áåçûìÿííûé_ãðàäèåíò_267-3" data-name="Áåçûìÿííûé ãðàäèåíò 267" x1="386" y1="78.55" x2="392.81" y2="48.52" xlink:href="#_Áåçûìÿííûé_ãðàäèåíò_267"/>
    <linearGradient id="_Áåçûìÿííûé_ãðàäèåíò_267-4" data-name="Áåçûìÿííûé ãðàäèåíò 267" x1="379.45" y1="13.5" x2="372.25" y2="93.37" xlink:href="#_Áåçûìÿííûé_ãðàäèåíò_267"/>
    <linearGradient id="_Áåçûìÿííûé_ãðàäèåíò_267-5" data-name="Áåçûìÿííûé ãðàäèåíò 267" x1="389.1" y1="35.17" x2="384.31" y2="88.24" xlink:href="#_Áåçûìÿííûé_ãðàäèåíò_267"/>
    <linearGradient id="_Áåçûìÿííûé_ãðàäèåíò_267-6" data-name="Áåçûìÿííûé ãðàäèåíò 267" x1="344.65" y1="72.83" x2="340.11" y2="123.17" gradientTransform="translate(-41.21 74.11) rotate(-17.79)" xlink:href="#_Áåçûìÿííûé_ãðàäèåíò_267"/>
    <linearGradient id="_Áåçûìÿííûé_ãðàäèåíò_267-7" data-name="Áåçûìÿííûé ãðàäèåíò 267" x1="431.75" y1="85.96" x2="426.36" y2="145.61" gradientTransform="translate(18.62 169.84) rotate(-38.57) scale(.79 1)" xlink:href="#_Áåçûìÿííûé_ãðàäèåíò_267"/>
    <linearGradient id="_Áåçûìÿííûé_ãðàäèåíò_267-8" data-name="Áåçûìÿííûé ãðàäèåíò 267" x1="350.91" y1="71.97" x2="363.12" y2="30.73" xlink:href="#_Áåçûìÿííûé_ãðàäèåíò_267"/>
    <linearGradient id="_Áåçûìÿííûé_ãðàäèåíò_267-9" data-name="Áåçûìÿííûé ãðàäèåíò 267" x1="326.68" y1="8.02" x2="319.48" y2="87.9" xlink:href="#_Áåçûìÿííûé_ãðàäèåíò_267"/>
    <linearGradient id="_Áåçûìÿííûé_ãðàäèåíò_267-10" data-name="Áåçûìÿííûé ãðàäèåíò 267" x1="330.8" y1="11.8" x2="324.03" y2="86.75" xlink:href="#_Áåçûìÿííûé_ãðàäèåíò_267"/>
    <linearGradient id="_Áåçûìÿííûé_ãðàäèåíò_267-11" data-name="Áåçûìÿííûé ãðàäèåíò 267" x1="308.52" y1="88.81" x2="305.92" y2="61.59" xlink:href="#_Áåçûìÿííûé_ãðàäèåíò_267"/>
    <linearGradient id="_Áåçûìÿííûé_ãðàäèåíò_267-12" data-name="Áåçûìÿííûé ãðàäèåíò 267" x1="289.87" y1="4.7" x2="282.66" y2="84.58" xlink:href="#_Áåçûìÿííûé_ãðàäèåíò_267"/>
    <linearGradient id="_Áåçûìÿííûé_ãðàäèåíò_267-13" data-name="Áåçûìÿííûé ãðàäèåíò 267" x1="320.39" y1="-7.65" x2="311.67" y2="88.96" xlink:href="#_Áåçûìÿííûé_ãðàäèåíò_267"/>
    <linearGradient id="_Áåçûìÿííûé_ãðàäèåíò_267-14" data-name="Áåçûìÿííûé ãðàäèåíò 267" x1="343.27" y1="87.62" x2="346.87" y2="72.3" xlink:href="#_Áåçûìÿííûé_ãðàäèåíò_267"/>
    <linearGradient id="_Áåçûìÿííûé_ãðàäèåíò_267-15" data-name="Áåçûìÿííûé ãðàäèåíò 267" x1="363.4" y1="76.95" x2="365.5" y2="66.74" xlink:href="#_Áåçûìÿííûé_ãðàäèåíò_267"/>
    <radialGradient id="_Áåçûìÿííûé_ãðàäèåíò_123" data-name="Áåçûìÿííûé ãðàäèåíò 123" cx="341.87" cy="48.78" fx="341.87" fy="48.78" r="54.05" gradientUnits="userSpaceOnUse">
      <stop offset="0" stop-color="#ffab00"/>
      <stop offset=".33" stop-color="#cd7100"/>
      <stop offset="1" stop-color="#6d0000"/>
    </radialGradient>
    <radialGradient id="_Áåçûìÿííûé_ãðàäèåíò_123-2" data-name="Áåçûìÿííûé ãðàäèåíò 123" cx="430.58" cy="83.65" fx="430.58" fy="83.65" r="19.94" xlink:href="#_Áåçûìÿííûé_ãðàäèåíò_123"/>
    <linearGradient id="linear-gradient-2" x1="328.98" y1="61.21" x2="381.73" y2="61.21" gradientUnits="userSpaceOnUse">
      <stop offset="0" stop-color="#b3d9ff"/>
      <stop offset="1" stop-color="#b3daff"/>
    </linearGradient>
    <linearGradient id="linear-gradient-3" x1="373.9" y1="77.99" x2="404.97" y2="77.99" xlink:href="#linear-gradient-2"/>
    <linearGradient id="linear-gradient-4" x1="293" y1="79.25" x2="346.93" y2="79.25" xlink:href="#linear-gradient-2"/>
    <linearGradient id="_Áåçûìÿííûé_ãðàäèåíò_169-2" data-name="Áåçûìÿííûé ãðàäèåíò 169" x1="27.45" y1="7341.56" x2="185.51" y2="7341.56" gradientTransform="translate(0 -3812.1) scale(1 .53)" xlink:href="#_Áåçûìÿííûé_ãðàäèåíò_169"/>
    <linearGradient id="_Áåçûìÿííûé_ãðàäèåíò_267-16" data-name="Áåçûìÿííûé ãðàäèåíò 267" x1="127.88" y1="74.89" x2="135.26" y2="50" xlink:href="#_Áåçûìÿííûé_ãðàäèåíò_267"/>
    <linearGradient id="_Áåçûìÿííûé_ãðàäèåíò_267-17" data-name="Áåçûìÿííûé ãðàäèåíò 267" x1="91.3" y1="70.22" x2="94.8" y2="58.4" xlink:href="#_Áåçûìÿííûé_ãðàäèåíò_267"/>
    <linearGradient id="_Áåçûìÿííûé_ãðàäèåíò_267-18" data-name="Áåçûìÿííûé ãðàäèåíò 267" x1="77.37" y1="71.45" x2="79.2" y2="65.26" xlink:href="#_Áåçûìÿííûé_ãðàäèåíò_267"/>
    <linearGradient id="linear-gradient-5" x1="71.03" y1="61.7" x2="163.01" y2="61.7" xlink:href="#linear-gradient-2"/>
    <linearGradient id="_Áåçûìÿííûé_ãðàäèåíò_169-3" data-name="Áåçûìÿííûé ãðàäèåíò 169" x1="128.32" y1="7317.61" x2="197.71" y2="7317.61" gradientTransform="translate(0 -3812.1) scale(1 .53)" xlink:href="#_Áåçûìÿííûé_ãðàäèåíò_169"/>
    <linearGradient id="_Áåçûìÿííûé_ãðàäèåíò_267-19" data-name="Áåçûìÿííûé ãðàäèåíò 267" x1="170.1" y1="52.31" x2="172.28" y2="44.97" xlink:href="#_Áåçûìÿííûé_ãðàäèåíò_267"/>
    <linearGradient id="_Áåçûìÿííûé_ãðàäèåíò_267-20" data-name="Áåçûìÿííûé ãðàäèåíò 267" x1="152.28" y1="54.01" x2="156.42" y2="40.03" xlink:href="#_Áåçûìÿííûé_ãðàäèåíò_267"/>
    <linearGradient id="_Áåçûìÿííûé_ãðàäèåíò_169-4" data-name="Áåçûìÿííûé ãðàäèåíò 169" x1="518.15" y1="41.94" x2="518.15" y2="14.32" xlink:href="#_Áåçûìÿííûé_ãðàäèåíò_169"/>
    <linearGradient id="_Áåçûìÿííûé_ãðàäèåíò_170" data-name="Áåçûìÿííûé ãðàäèåíò 170" x1="507.7" y1="39.55" x2="507.4" y2="17.77" gradientUnits="userSpaceOnUse">
      <stop offset="0" stop-color="#dbe1ff"/>
      <stop offset=".36" stop-color="#e3e8ff"/>
      <stop offset=".94" stop-color="#fbfcff"/>
      <stop offset="1" stop-color="#fff"/>
    </linearGradient>
    <linearGradient id="_Áåçûìÿííûé_ãðàäèåíò_170-2" data-name="Áåçûìÿííûé ãðàäèåíò 170" x1="545.3" y1="39.53" x2="544.98" y2="16.75" xlink:href="#_Áåçûìÿííûé_ãðàäèåíò_170"/>
    <linearGradient id="_Áåçûìÿííûé_ãðàäèåíò_170-3" data-name="Áåçûìÿííûé ãðàäèåíò 170" x1="462.97" y1="40.17" x2="462.67" y2="18.38" xlink:href="#_Áåçûìÿííûé_ãðàäèåíò_170"/>
    <linearGradient id="_Áåçûìÿííûé_ãðàäèåíò_125" data-name="Áåçûìÿííûé ãðàäèåíò 125" x1="300.06" y1="193.64" x2="300.06" y2="58.7" gradientUnits="userSpaceOnUse">
      <stop offset="0" stop-color="#8eebff"/>
      <stop offset="1" stop-color="#5e7af4"/>
    </linearGradient>
    <filter id="luminosity-noclip-2" data-name="luminosity-noclip" x="28.32" y="95.15" width="1.34" height="2.48" color-interpolation-filters="sRGB" filterUnits="userSpaceOnUse">
      <feFlood flood-color="#fff" result="bg"/>
      <feBlend in="SourceGraphic" in2="bg"/>
    </filter>
    <filter id="luminosity-noclip-3" x="8492" y="-8327" width="-32766" height="32766" color-interpolation-filters="sRGB" filterUnits="userSpaceOnUse">
      <feFlood flood-color="#fff" result="bg"/>
      <feBlend in="SourceGraphic" in2="bg"/>
    </filter>
    <mask id="mask-1" x="8492" y="-8327" width="-32766" height="32766" maskUnits="userSpaceOnUse"/>
    <linearGradient id="_Áåçûìÿííûé_ãðàäèåíò_342" data-name="Áåçûìÿííûé ãðàäèåíò 342" x1="28.79" y1="97.78" x2="29.12" y2="95.51" gradientUnits="userSpaceOnUse">
      <stop offset="0" stop-color="#fff"/>
      <stop offset="1" stop-color="#e0e0e0"/>
    </linearGradient>
    <mask id="mask" x="28.32" y="95.15" width="1.34" height="2.48" maskUnits="userSpaceOnUse">
      <g class="cls-162">
        <g class="cls-163">
          <path class="cls-92" d="M28.53,95.32l-.21-.17c.61,.86,1.05,1.69,1.34,2.48-.36-1.12-.73-1.94-1.13-2.31Z"/>
        </g>
      </g>
    </mask>
    <linearGradient id="_Áåçûìÿííûé_ãðàäèåíò_16" data-name="Áåçûìÿííûé ãðàäèåíò 16" x1="28.79" y1="97.78" x2="29.12" y2="95.51" gradientUnits="userSpaceOnUse">
      <stop offset="0" stop-color="#d19dae"/>
      <stop offset="1" stop-color="#c0c4d9"/>
    </linearGradient>
    <filter id="luminosity-noclip-4" x="-73.64" y="170.81" width="356.94" height="70.04" color-interpolation-filters="sRGB" filterUnits="userSpaceOnUse">
      <feFlood flood-color="#fff" result="bg"/>
      <feBlend in="SourceGraphic" in2="bg"/>
    </filter>
    <filter id="luminosity-noclip-5" x="8492" y="-8327" width="-32766" height="32766" color-interpolation-filters="sRGB" filterUnits="userSpaceOnUse">
      <feFlood flood-color="#fff" result="bg"/>
      <feBlend in="SourceGraphic" in2="bg"/>
    </filter>
    <mask id="mask-3" x="8492" y="-8327" width="-32766" height="32766" maskUnits="userSpaceOnUse"/>
    <linearGradient id="_Áåçûìÿííûé_ãðàäèåíò_341" data-name="Áåçûìÿííûé ãðàäèåíò 341" x1="-73.64" y1="205.83" x2="283.3" y2="205.83" gradientUnits="userSpaceOnUse">
      <stop offset="0" stop-color="#fff"/>
      <stop offset="1" stop-color="#e0e0e0"/>
    </linearGradient>
    <mask id="mask-2" x="-73.64" y="170.81" width="356.94" height="70.04" maskUnits="userSpaceOnUse">
      <g class="cls-140">
        <g class="cls-122">
          <path class="cls-26" d="M283.3,219.91l-22.98,20.94L11.79,216.36l-52.75-7.17-32.68-37.28c112.38-7.99,302.91,29.94,311.21,31.61h.02c28.82,9.62,45.71,16.39,45.71,16.39Z"/>
        </g>
      </g>
    </mask>
    <linearGradient id="_Áåçûìÿííûé_ãðàäèåíò_101" data-name="Áåçûìÿííûé ãðàäèåíò 101" x1="-73.64" y1="205.83" x2="283.3" y2="205.83" gradientUnits="userSpaceOnUse">
      <stop offset="0" stop-color="#92b9f7"/>
      <stop offset="1" stop-color="#a2d5f8"/>
    </linearGradient>
    <linearGradient id="_Áåçûìÿííûé_ãðàäèåíò_291" data-name="Áåçûìÿííûé ãðàäèåíò 291" x1="309.16" y1="210.06" x2="298.27" y2="282.24" gradientUnits="userSpaceOnUse">
      <stop offset=".02" stop-color="#ffa92b"/>
      <stop offset=".95" stop-color="#eb8548"/>
    </linearGradient>
    <linearGradient id="linear-gradient-6" x1="501.73" y1="205.39" x2="225.15" y2="190.56" gradientUnits="userSpaceOnUse">
      <stop offset="0" stop-color="#00b3f4"/>
      <stop offset="1" stop-color="#a2fdff"/>
    </linearGradient>
    <filter id="luminosity-noclip-6" x="-48.95" y="152.71" width="317.82" height="67.03" color-interpolation-filters="sRGB" filterUnits="userSpaceOnUse">
      <feFlood flood-color="#fff" result="bg"/>
      <feBlend in="SourceGraphic" in2="bg"/>
    </filter>
    <filter id="luminosity-noclip-7" x="8492" y="-8327" width="-32766" height="32766" color-interpolation-filters="sRGB" filterUnits="userSpaceOnUse">
      <feFlood flood-color="#fff" result="bg"/>
      <feBlend in="SourceGraphic" in2="bg"/>
    </filter>
    <mask id="mask-5" x="8492" y="-8327" width="-32766" height="32766" maskUnits="userSpaceOnUse"/>
    <linearGradient id="_Áåçûìÿííûé_ãðàäèåíò_340" data-name="Áåçûìÿííûé ãðàäèåíò 340" x1="116.69" y1="228.18" x2="103.24" y2="139.68" gradientUnits="userSpaceOnUse">
      <stop offset="0" stop-color="#fff"/>
      <stop offset="1" stop-color="#e0e0e0"/>
    </linearGradient>
    <mask id="mask-4" x="-48.95" y="152.71" width="317.82" height="67.03" maskUnits="userSpaceOnUse">
      <g class="cls-144">
        <g class="cls-132">
          <path class="cls-33" d="M268.87,214.94l-.43,1.4-60.04,3.4S97.46,171-2.87,158.14c-3.97-.52-7.93-.98-11.87-1.37-78.2-7.8,2.12-1.96,2.12-1.96,19.33,2.19,38.74,5.46,57.6,9.36,88.75,18.35,165.4,50.66,165.4,50.66l58.49,.11Z"/>
        </g>
      </g>
    </mask>
    <linearGradient id="_Áåçûìÿííûé_ãðàäèåíò_126" data-name="Áåçûìÿííûé ãðàäèåíò 126" x1="116.69" y1="228.18" x2="103.24" y2="139.68" gradientUnits="userSpaceOnUse">
      <stop offset="0" stop-color="#bf8497"/>
      <stop offset="1" stop-color="#a4aac7"/>
    </linearGradient>
    <linearGradient id="_Áåçûìÿííûé_ãðàäèåíò_30" data-name="Áåçûìÿííûé ãðàäèåíò 30" x1="52.3" y1="214.51" x2="55.76" y2="114.87" gradientTransform="translate(-5.17 2.2) rotate(-1.42)" gradientUnits="userSpaceOnUse">
      <stop offset="0" stop-color="#a4a736"/>
      <stop offset=".3" stop-color="#9bae21"/>
      <stop offset=".73" stop-color="#92b609"/>
      <stop offset="1" stop-color="#8fba00"/>
    </linearGradient>
    <filter id="luminosity-noclip-8" x="3.48" y="165.34" width="98.38" height="40.05" color-interpolation-filters="sRGB" filterUnits="userSpaceOnUse">
      <feFlood flood-color="#fff" result="bg"/>
      <feBlend in="SourceGraphic" in2="bg"/>
    </filter>
    <filter id="luminosity-noclip-9" x="8492" y="-8327" width="-32766" height="32766" color-interpolation-filters="sRGB" filterUnits="userSpaceOnUse">
      <feFlood flood-color="#fff" result="bg"/>
      <feBlend in="SourceGraphic" in2="bg"/>
    </filter>
    <mask id="mask-7" x="8492" y="-8327" width="-32766" height="32766" maskUnits="userSpaceOnUse"/>
    <linearGradient id="_Áåçûìÿííûé_ãðàäèåíò_339" data-name="Áåçûìÿííûé ãðàäèåíò 339" x1="51.77" y1="198.48" x2="57.09" y2="162.42" gradientTransform="translate(-6.79 3.14) rotate(-1.95)" gradientUnits="userSpaceOnUse">
      <stop offset="0" stop-color="#fff"/>
      <stop offset="1" stop-color="#e0e0e0"/>
    </linearGradient>
    <mask id="mask-6" x="3.48" y="165.34" width="98.38" height="40.05" maskUnits="userSpaceOnUse">
      <g class="cls-142">
        <g class="cls-168">
          <path class="cls-82" d="M101.85,205.39l-38.25-4.47-18.96-2.22-.78-.1-21.59-2.52-16.73-1.96s-.02-.09-.06-.26c-.08-.39-.25-1.2-.46-2.28-.85-4.37-2.29-13.19-1.09-17.08,.74,3.23,4.45,3.76,4.45,3.76,0,0-4.11,1.13-3.95,3.65,.16,2.51,16.64,2.02,16.63,1.55-.02-.45-.04-1.48-1.47-3.17-1.43-1.68-5.88-1.92-5.88-1.92,0,0,11.72-2.99,10.54-9.52,1.27,5.13,2.29,16,2.4,17.33-.04-.85-.22-5.38,.85-5.62,.13-.03,.36,0,.68,.06-1.93,1.48,9.94,8.57,11.49,4.81,.07-.14,.1-.28,.12-.42,.62,.79,1.86,3.59,2.91,6.09l.27,1.03-.08-.6c.83,2,1.51,3.74,1.6,3.95-.17-.74-4.01-18.74-2.76-22.81,.11-.36,.29-.72,.53-1.07,4.17,8.18,16.46,8.78,17.23,8.16,.62-.51,1.14-5.02,.49-9.18,.05,.18,.08,.3,.08,.3,0,0,.15-1.84,.93-2.08,0,0-.71,6.99,2,8.65,2.72,1.65,6.87-.21,6.24-3.34,1.18,.93,1.72,9.11,1.87,11.74-.12-3.35-.56-16.19,.39-19.66h0c.28-.53,.47-.85,.47-.85,0,0,5.73,7.47,9.25,6.02,.61-.25,1.03-.67,1.28-1.19,1.77,5.66,3.44,23,3.44,23,0,0,.28-6.84,1.27-8.57,.1,1.04,1.06,7.01,10.29,8.52,1.11,.18,2.13,.25,3.06,.21,1.5,5.16,1.31,12.06,1.31,12.06Z"/>
        </g>
      </g>
    </mask>
    <linearGradient id="_Áåçûìÿííûé_ãðàäèåíò_270" data-name="Áåçûìÿííûé ãðàäèåíò 270" x1="51.77" y1="198.48" x2="57.09" y2="162.42" gradientTransform="translate(-6.79 3.14) rotate(-1.95)" gradientUnits="userSpaceOnUse">
      <stop offset="0" stop-color="#d1547c"/>
      <stop offset="1" stop-color="#7486d9"/>
    </linearGradient>
    <linearGradient id="_Áåçûìÿííûé_ãðàäèåíò_30-2" data-name="Áåçûìÿííûé ãðàäèåíò 30" x1="152.16" y1="217.44" x2="155.62" y2="117.95" gradientTransform="translate(-6.7 3.73) rotate(-2.06)" xlink:href="#_Áåçûìÿííûé_ãðàäèåíò_30"/>
    <filter id="luminosity-noclip-10" x="125.35" y="183.06" width="55.61" height="35.59" color-interpolation-filters="sRGB" filterUnits="userSpaceOnUse">
      <feFlood flood-color="#fff" result="bg"/>
      <feBlend in="SourceGraphic" in2="bg"/>
    </filter>
    <filter id="luminosity-noclip-11" x="8492" y="-8327" width="-32766" height="32766" color-interpolation-filters="sRGB" filterUnits="userSpaceOnUse">
      <feFlood flood-color="#fff" result="bg"/>
      <feBlend in="SourceGraphic" in2="bg"/>
    </filter>
    <mask id="mask-9" x="8492" y="-8327" width="-32766" height="32766" maskUnits="userSpaceOnUse"/>
    <linearGradient id="_Áåçûìÿííûé_ãðàäèåíò_338" data-name="Áåçûìÿííûé ãðàäèåíò 338" x1="152.22" y1="177.87" x2="152.62" y2="218.74" gradientTransform="translate(-6.7 3.73) rotate(-2.06)" gradientUnits="userSpaceOnUse">
      <stop offset="0" stop-color="#fff"/>
      <stop offset="1" stop-color="#e0e0e0"/>
    </linearGradient>
    <mask id="mask-8" x="125.35" y="183.06" width="55.61" height="35.59" maskUnits="userSpaceOnUse">
      <g class="cls-178">
        <g class="cls-128">
          <path class="cls-72" d="M180.97,218.65l-51.74-10.04s-4.7-14-3.74-17.38c5.24,2.79,13.86-4.48,12.97-8.17,2.79,3.77,6.58,14.44,6.58,14.44,0,0-.09-2.44,.76-3.61v.03s1.52,11.97,9.21,11.57c1.24-.07,2.32-.31,3.25-.68,.65,4.43-.78,9.18-.78,9.18l12.13,2.08s-2.23-6.99-1.46-9.07c.18,.09,.36,.19,.55,.28,4.24,2.11,6.99,2.39,8.76,2,1.84,3.3,3.51,9.35,3.51,9.35Z"/>
        </g>
      </g>
    </mask>
    <linearGradient id="_Áåçûìÿííûé_ãðàäèåíò_270-2" data-name="Áåçûìÿííûé ãðàäèåíò 270" x1="152.22" y1="177.87" x2="152.62" y2="218.74" gradientTransform="translate(-6.7 3.73) rotate(-2.06)" xlink:href="#_Áåçûìÿííûé_ãðàäèåíò_270"/>
    <linearGradient id="_Áåçûìÿííûé_ãðàäèåíò_291-2" data-name="Áåçûìÿííûé ãðàäèåíò 291" x1="277.48" y1="210.27" x2="268.92" y2="220.87" xlink:href="#_Áåçûìÿííûé_ãðàäèåíò_291"/>
    <linearGradient id="_Áåçûìÿííûé_ãðàäèåíò_13" data-name="Áåçûìÿííûé ãðàäèåíò 13" x1="140.25" y1="193.6" x2="151.74" y2="156.83" gradientUnits="userSpaceOnUse">
      <stop offset="0" stop-color="#b0b270"/>
      <stop offset=".19" stop-color="#aab658"/>
      <stop offset=".54" stop-color="#a1be30"/>
      <stop offset=".83" stop-color="#9cc318"/>
      <stop offset="1" stop-color="#9ac50f"/>
    </linearGradient>
    <filter id="luminosity-noclip-12" x="133.53" y="162.31" width="56.99" height="27.65" color-interpolation-filters="sRGB" filterUnits="userSpaceOnUse">
      <feFlood flood-color="#fff" result="bg"/>
      <feBlend in="SourceGraphic" in2="bg"/>
    </filter>
    <filter id="luminosity-noclip-13" x="8492" y="-8327" width="-32766" height="32766" color-interpolation-filters="sRGB" filterUnits="userSpaceOnUse">
      <feFlood flood-color="#fff" result="bg"/>
      <feBlend in="SourceGraphic" in2="bg"/>
    </filter>
    <mask id="mask-11" x="8492" y="-8327" width="-32766" height="32766" maskUnits="userSpaceOnUse"/>
    <linearGradient id="_Áåçûìÿííûé_ãðàäèåíò_336" data-name="Áåçûìÿííûé ãðàäèåíò 336" x1="161.93" y1="182.67" x2="163.12" y2="158.16" gradientUnits="userSpaceOnUse">
      <stop offset="0" stop-color="#fff"/>
      <stop offset="1" stop-color="#e0e0e0"/>
    </linearGradient>
    <mask id="mask-10" x="133.53" y="162.31" width="56.99" height="27.65" maskUnits="userSpaceOnUse">
      <g class="cls-134">
        <g class="cls-175">
          <path class="cls-85" d="M190.1,189.97l-56.57-15.3,.1-.61,1.66,.5s-.58-8.55,1.52-10.7c.09-.09,.2-.18,.33-.27,6.76,2.56,16.78,1.76,20.8-1.28,1.48,3.18,.8,12.06,.8,12.06,0,0,1.11-5.03,2.67-4.8,1.55,.23-1.06,7.49-1.06,7.49,0,0,6.07-11.02,9.26-11.03l.25,.02s-3.24,5.57,6.76,5.51c.82,1.22-2.1,7.75-2.1,7.75,0,0-8.88,.09-8.25,1.27,.58,1.09,17.46,4.7,23.99,4.83,.03,.03,.05,.06,.07,.08,.51,.62-.24,4.47-.24,4.47Z"/>
        </g>
      </g>
    </mask>
    <linearGradient id="_Áåçûìÿííûé_ãðàäèåíò_126-2" data-name="Áåçûìÿííûé ãðàäèåíò 126" x1="161.93" y1="182.67" x2="163.12" y2="158.16" xlink:href="#_Áåçûìÿííûé_ãðàäèåíò_126"/>
    <filter id="luminosity-noclip-14" x="103.1" y="154.99" width="26.06" height="18.44" color-interpolation-filters="sRGB" filterUnits="userSpaceOnUse">
      <feFlood flood-color="#fff" result="bg"/>
      <feBlend in="SourceGraphic" in2="bg"/>
    </filter>
    <filter id="luminosity-noclip-15" x="8492" y="-8327" width="-32766" height="32766" color-interpolation-filters="sRGB" filterUnits="userSpaceOnUse">
      <feFlood flood-color="#fff" result="bg"/>
      <feBlend in="SourceGraphic" in2="bg"/>
    </filter>
    <mask id="mask-13" x="8492" y="-8327" width="-32766" height="32766" maskUnits="userSpaceOnUse"/>
    <linearGradient id="_Áåçûìÿííûé_ãðàäèåíò_335" data-name="Áåçûìÿííûé ãðàäèåíò 335" x1="115.38" y1="180.41" x2="116.58" y2="155.9" gradientUnits="userSpaceOnUse">
      <stop offset="0" stop-color="#fff"/>
      <stop offset="1" stop-color="#e0e0e0"/>
    </linearGradient>
    <mask id="mask-12" x="103.1" y="154.99" width="26.06" height="18.44" maskUnits="userSpaceOnUse">
      <g class="cls-131">
        <g class="cls-121">
          <path class="cls-77" d="M129.16,172.71l-.2,.72-24.35-6.59s-2.87-10.54-.7-11.85c1.93,3.84,9.98,3.92,13.18,3.79,1.34,1.87,3.05,10.61,3.17,11.19,.02-.18,.08-1.14,.24-2.33,.9,1.93,2.19,3.4,3.98,3.35,.64-.02,1.19-.03,1.69-.04,.11,.56,.18,.91,.18,.91l2.81,.85Z"/>
        </g>
      </g>
    </mask>
    <linearGradient id="_Áåçûìÿííûé_ãðàäèåíò_126-3" data-name="Áåçûìÿííûé ãðàäèåíò 126" x1="115.38" y1="180.41" x2="116.58" y2="155.9" xlink:href="#_Áåçûìÿííûé_ãðàäèåíò_126"/>
    <linearGradient id="_Áåçûìÿííûé_ãðàäèåíò_13-2" data-name="Áåçûìÿííûé ãðàäèåíò 13" x1="210.53" y1="215.56" x2="222.02" y2="178.79" xlink:href="#_Áåçûìÿííûé_ãðàäèåíò_13"/>
    <linearGradient id="_Áåçûìÿííûé_ãðàäèåíò_17" data-name="Áåçûìÿííûé ãðàäèåíò 17" x1="66.94" y1="164.4" x2="59.28" y2="273.93" gradientUnits="userSpaceOnUse">
      <stop offset="0" stop-color="#dad02c"/>
      <stop offset=".06" stop-color="#d4cd28"/>
      <stop offset=".47" stop-color="#acc012"/>
      <stop offset=".8" stop-color="#94b805"/>
      <stop offset="1" stop-color="#8bb500"/>
    </linearGradient>
    <linearGradient id="_Áåçûìÿííûé_ãðàäèåíò_14" data-name="Áåçûìÿííûé ãðàäèåíò 14" x1="120.12" y1="246.76" x2="68.53" y2="200.62" gradientUnits="userSpaceOnUse">
      <stop offset="0" stop-color="#aaa222"/>
      <stop offset=".41" stop-color="#879310"/>
      <stop offset=".78" stop-color="#6f8804"/>
      <stop offset="1" stop-color="#668500"/>
    </linearGradient>
    <linearGradient id="_Áåçûìÿííûé_ãðàäèåíò_98" data-name="Áåçûìÿííûé ãðàäèåíò 98" x1="156.24" y1="211.38" x2="154.2" y2="278.28" gradientUnits="userSpaceOnUse">
      <stop offset=".02" stop-color="#f69d1a"/>
      <stop offset=".95" stop-color="#de7536"/>
    </linearGradient>
    <linearGradient id="_Áåçûìÿííûé_ãðàäèåíò_17-2" data-name="Áåçûìÿííûé ãðàäèåíò 17" x1="295.83" y1="180.4" x2="288.17" y2="289.93" xlink:href="#_Áåçûìÿííûé_ãðàäèåíò_17"/>
    <linearGradient id="_Áåçûìÿííûé_ãðàäèåíò_14-2" data-name="Áåçûìÿííûé ãðàäèåíò 14" x1="190.86" y1="117.02" x2="245.5" y2="281.45" xlink:href="#_Áåçûìÿííûé_ãðàäèåíò_14"/>
    <linearGradient id="_Áåçûìÿííûé_ãðàäèåíò_14-3" data-name="Áåçûìÿííûé ãðàäèåíò 14" x1="96.68" y1="323.51" x2="35.63" y2="268.91" xlink:href="#_Áåçûìÿííûé_ãðàäèåíò_14"/>
    <linearGradient id="_Áåçûìÿííûé_ãðàäèåíò_98-2" data-name="Áåçûìÿííûé ãðàäèåíò 98" x1="26.99" y1="214.6" x2="25.28" y2="270.73" xlink:href="#_Áåçûìÿííûé_ãðàäèåíò_98"/>
    <filter id="luminosity-noclip-16" x=".98" y="230.33" width="5.49" height="15.66" color-interpolation-filters="sRGB" filterUnits="userSpaceOnUse">
      <feFlood flood-color="#fff" result="bg"/>
      <feBlend in="SourceGraphic" in2="bg"/>
    </filter>
    <filter id="luminosity-noclip-17" x="8492" y="-8327" width="-32766" height="32766" color-interpolation-filters="sRGB" filterUnits="userSpaceOnUse">
      <feFlood flood-color="#fff" result="bg"/>
      <feBlend in="SourceGraphic" in2="bg"/>
    </filter>
    <mask id="mask-15" x="8492" y="-8327" width="-32766" height="32766" maskUnits="userSpaceOnUse"/>
    <linearGradient id="_Áåçûìÿííûé_ãðàäèåíò_332" data-name="Áåçûìÿííûé ãðàäèåíò 332" x1="5.79" y1="170.51" x2="2.95" y2="263.51" gradientUnits="userSpaceOnUse">
      <stop offset="0" stop-color="#fff"/>
      <stop offset="1" stop-color="#e0e0e0"/>
    </linearGradient>
    <mask id="mask-14" x=".98" y="230.33" width="5.49" height="15.66" maskUnits="userSpaceOnUse">
      <g class="cls-138">
        <g class="cls-150">
          <polygon class="cls-99" points="6.47 245.99 3.34 245.32 .98 230.33 6.18 230.59 6.34 239.09 6.41 243.01 6.41 243.02 6.47 245.99"/>
        </g>
      </g>
    </mask>
    <linearGradient id="_Áåçûìÿííûé_ãðàäèåíò_126-4" data-name="Áåçûìÿííûé ãðàäèåíò 126" x1="5.79" y1="170.51" x2="2.95" y2="263.51" xlink:href="#_Áåçûìÿííûé_ãðàäèåíò_126"/>
    <filter id="luminosity-noclip-18" x="8.22" y="230.69" width="27.29" height="20.63" color-interpolation-filters="sRGB" filterUnits="userSpaceOnUse">
      <feFlood flood-color="#fff" result="bg"/>
      <feBlend in="SourceGraphic" in2="bg"/>
    </filter>
    <filter id="luminosity-noclip-19" x="8492" y="-8327" width="-32766" height="32766" color-interpolation-filters="sRGB" filterUnits="userSpaceOnUse">
      <feFlood flood-color="#fff" result="bg"/>
      <feBlend in="SourceGraphic" in2="bg"/>
    </filter>
    <mask id="mask-17" x="8492" y="-8327" width="-32766" height="32766" maskUnits="userSpaceOnUse"/>
    <linearGradient id="_Áåçûìÿííûé_ãðàäèåíò_331" data-name="Áåçûìÿííûé ãðàäèåíò 331" x1="24.22" y1="154.45" x2="20.58" y2="273.44" gradientUnits="userSpaceOnUse">
      <stop offset="0" stop-color="#fff"/>
      <stop offset="1" stop-color="#e0e0e0"/>
    </linearGradient>
    <mask id="mask-16" x="8.22" y="230.69" width="27.29" height="20.63" maskUnits="userSpaceOnUse">
      <g class="cls-145">
        <g class="cls-110">
          <polygon class="cls-94" points="34.62 251.32 16.83 250.62 16.82 250.62 16.63 250.48 12.14 247.2 12.13 247.2 8.5 246.42 8.47 244.52 8.36 238.5 8.22 230.69 32.72 231.91 35.51 232.17 34.62 251.32"/>
        </g>
      </g>
    </mask>
    <linearGradient id="_Áåçûìÿííûé_ãðàäèåíò_126-5" data-name="Áåçûìÿííûé ãðàäèåíò 126" x1="24.22" y1="154.45" x2="20.58" y2="273.44" xlink:href="#_Áåçûìÿííûé_ãðàäèåíò_126"/>
    <filter id="luminosity-noclip-20" x="139.81" y="245.63" width="4" height="14.05" color-interpolation-filters="sRGB" filterUnits="userSpaceOnUse">
      <feFlood flood-color="#fff" result="bg"/>
      <feBlend in="SourceGraphic" in2="bg"/>
    </filter>
    <filter id="luminosity-noclip-21" x="8492" y="-8327" width="-32766" height="32766" color-interpolation-filters="sRGB" filterUnits="userSpaceOnUse">
      <feFlood flood-color="#fff" result="bg"/>
      <feBlend in="SourceGraphic" in2="bg"/>
    </filter>
    <mask id="mask-19" x="8492" y="-8327" width="-32766" height="32766" maskUnits="userSpaceOnUse"/>
    <linearGradient id="_Áåçûìÿííûé_ãðàäèåíò_330" data-name="Áåçûìÿííûé ãðàäèåíò 330" x1="143.67" y1="191.84" x2="141.11" y2="275.44" gradientUnits="userSpaceOnUse">
      <stop offset="0" stop-color="#fff"/>
      <stop offset="1" stop-color="#e0e0e0"/>
    </linearGradient>
    <mask id="mask-18" x="139.81" y="245.63" width="4" height="14.05" maskUnits="userSpaceOnUse">
      <g class="cls-108">
        <g class="cls-149">
          <path class="cls-86" d="M142.93,247.33l.88,12.35c-.81-.61-1.54-1.19-2.2-1.74l-1.8-12.31c.95,.57,2,1.14,3.12,1.7Z"/>
        </g>
      </g>
    </mask>
    <linearGradient id="_Áåçûìÿííûé_ãðàäèåíò_126-6" data-name="Áåçûìÿííûé ãðàäèåíò 126" x1="143.67" y1="191.84" x2="141.11" y2="275.44" xlink:href="#_Áåçûìÿííûé_ãðàäèåíò_126"/>
    <filter id="luminosity-noclip-22" x="147.5" y="249.46" width="133.4" height="54.37" color-interpolation-filters="sRGB" filterUnits="userSpaceOnUse">
      <feFlood flood-color="#fff" result="bg"/>
      <feBlend in="SourceGraphic" in2="bg"/>
    </filter>
    <filter id="luminosity-noclip-23" x="8492" y="-8327" width="-32766" height="32766" color-interpolation-filters="sRGB" filterUnits="userSpaceOnUse">
      <feFlood flood-color="#fff" result="bg"/>
      <feBlend in="SourceGraphic" in2="bg"/>
    </filter>
    <mask id="mask-21" x="8492" y="-8327" width="-32766" height="32766" maskUnits="userSpaceOnUse"/>
    <linearGradient id="_Áåçûìÿííûé_ãðàäèåíò_329" data-name="Áåçûìÿííûé ãðàäèåíò 329" x1="220.55" y1="56.67" x2="211.31" y2="359.11" gradientUnits="userSpaceOnUse">
      <stop offset="0" stop-color="#fff"/>
      <stop offset="1" stop-color="#e0e0e0"/>
    </linearGradient>
    <mask id="mask-20" x="147.5" y="249.46" width="133.4" height="54.37" maskUnits="userSpaceOnUse">
      <g class="cls-120">
        <g class="cls-174">
          <path class="cls-91" d="M280.9,279.76l-2.93,24.07c-52.61-10.91-85.9-21.13-106.96-29.77-10.34-4.25-17.73-8.11-23.01-11.48l-.5-13.12c25.11,10.75,77.33,20.84,122.23,26.35,0,0,4.38,1.51,11.17,3.95Z"/>
        </g>
      </g>
    </mask>
    <linearGradient id="_Áåçûìÿííûé_ãðàäèåíò_126-7" data-name="Áåçûìÿííûé ãðàäèåíò 126" x1="220.55" y1="56.67" x2="211.31" y2="359.11" xlink:href="#_Áåçûìÿííûé_ãðàäèåíò_126"/>
    <linearGradient id="_Áåçûìÿííûé_ãðàäèåíò_14-4" data-name="Áåçûìÿííûé ãðàäèåíò 14" x1="71.52" y1="206.01" x2="48.2" y2="245.5" xlink:href="#_Áåçûìÿííûé_ãðàäèåíò_14"/>
    <filter id="luminosity-noclip-24" x="37.17" y="223.11" width="25.02" height="15.95" color-interpolation-filters="sRGB" filterUnits="userSpaceOnUse">
      <feFlood flood-color="#fff" result="bg"/>
      <feBlend in="SourceGraphic" in2="bg"/>
    </filter>
    <filter id="luminosity-noclip-25" x="8492" y="-8327" width="-32766" height="32766" color-interpolation-filters="sRGB" filterUnits="userSpaceOnUse">
      <feFlood flood-color="#fff" result="bg"/>
      <feBlend in="SourceGraphic" in2="bg"/>
    </filter>
    <mask id="mask-23" x="8492" y="-8327" width="-32766" height="32766" maskUnits="userSpaceOnUse"/>
    <linearGradient id="_Áåçûìÿííûé_ãðàäèåíò_328" data-name="Áåçûìÿííûé ãðàäèåíò 328" x1="50.43" y1="208.35" x2="49.26" y2="231.82" gradientUnits="userSpaceOnUse">
      <stop offset="0" stop-color="#fff"/>
      <stop offset="1" stop-color="#e0e0e0"/>
    </linearGradient>
    <mask id="mask-22" x="37.17" y="223.11" width="25.02" height="15.95" maskUnits="userSpaceOnUse">
      <g class="cls-112">
        <g class="cls-104">
          <polygon class="cls-95" points="62.19 223.11 61.38 238.64 60.91 238.81 55.94 239.06 55.17 226.3 37.17 223.62 62.19 223.11"/>
        </g>
      </g>
    </mask>
    <linearGradient id="_Áåçûìÿííûé_ãðàäèåíò_126-8" data-name="Áåçûìÿííûé ãðàäèåíò 126" x1="50.43" y1="208.35" x2="49.26" y2="231.82" xlink:href="#_Áåçûìÿííûé_ãðàäèåíò_126"/>
    <filter id="luminosity-noclip-26" x="173.43" y="221.78" width="94.04" height="14.2" color-interpolation-filters="sRGB" filterUnits="userSpaceOnUse">
      <feFlood flood-color="#fff" result="bg"/>
      <feBlend in="SourceGraphic" in2="bg"/>
    </filter>
    <filter id="luminosity-noclip-27" x="8492" y="-8327" width="-32766" height="32766" color-interpolation-filters="sRGB" filterUnits="userSpaceOnUse">
      <feFlood flood-color="#fff" result="bg"/>
      <feBlend in="SourceGraphic" in2="bg"/>
    </filter>
    <mask id="mask-25" x="8492" y="-8327" width="-32766" height="32766" maskUnits="userSpaceOnUse"/>
    <linearGradient id="_Áåçûìÿííûé_ãðàäèåíò_327" data-name="Áåçûìÿííûé ãðàäèåíò 327" x1="220.62" y1="223.22" x2="220.28" y2="234.54" gradientUnits="userSpaceOnUse">
      <stop offset="0" stop-color="#fff"/>
      <stop offset="1" stop-color="#e0e0e0"/>
    </linearGradient>
    <mask id="mask-24" x="173.43" y="221.78" width="94.04" height="14.2" maskUnits="userSpaceOnUse">
      <g class="cls-151">
        <g class="cls-141">
          <path class="cls-97" d="M267.47,235.98c-44.87-5.91-93.7-10.96-93.7-10.96l-.34-3.24c15,1.65,49.67,5.91,94.04,14.2Z"/>
        </g>
      </g>
    </mask>
    <linearGradient id="_Áåçûìÿííûé_ãðàäèåíò_126-9" data-name="Áåçûìÿííûé ãðàäèåíò 126" x1="220.62" y1="223.22" x2="220.28" y2="234.54" xlink:href="#_Áåçûìÿííûé_ãðàäèåíò_126"/>
    <linearGradient id="_Áåçûìÿííûé_ãðàäèåíò_17-3" data-name="Áåçûìÿííûé ãðàäèåíò 17" x1="340.36" y1="216.98" x2="343.42" y2="304.81" xlink:href="#_Áåçûìÿííûé_ãðàäèåíò_17"/>
    <linearGradient id="_Áåçûìÿííûé_ãðàäèåíò_14-5" data-name="Áåçûìÿííûé ãðàäèåíò 14" x1="287.56" y1="208.33" x2="283.81" y2="283.22" xlink:href="#_Áåçûìÿííûé_ãðàäèåíò_14"/>
    <filter id="luminosity-noclip-28" x="171.47" y="254.13" width="250.03" height="38.76" color-interpolation-filters="sRGB" filterUnits="userSpaceOnUse">
      <feFlood flood-color="#fff" result="bg"/>
      <feBlend in="SourceGraphic" in2="bg"/>
    </filter>
    <filter id="luminosity-noclip-29" x="8492" y="-8327" width="-32766" height="32766" color-interpolation-filters="sRGB" filterUnits="userSpaceOnUse">
      <feFlood flood-color="#fff" result="bg"/>
      <feBlend in="SourceGraphic" in2="bg"/>
    </filter>
    <mask id="mask-27" x="8492" y="-8327" width="-32766" height="32766" maskUnits="userSpaceOnUse"/>
    <linearGradient id="_Áåçûìÿííûé_ãðàäèåíò_326" data-name="Áåçûìÿííûé ãðàäèåíò 326" x1="298.79" y1="224.97" x2="295.77" y2="285.35" gradientUnits="userSpaceOnUse">
      <stop offset="0" stop-color="#fff"/>
      <stop offset="1" stop-color="#e0e0e0"/>
    </linearGradient>
    <mask id="mask-26" x="171.47" y="254.13" width="250.03" height="38.76" maskUnits="userSpaceOnUse">
      <g class="cls-170">
        <g class="cls-105">
          <path class="cls-66" d="M176.83,285.53l-1.23-.57-4.13-30.83s154.72,3.57,236.42,27.06c81.71,23.49-231.06,4.34-231.06,4.34Z"/>
        </g>
      </g>
    </mask>
    <linearGradient id="_Áåçûìÿííûé_ãðàäèåíò_126-10" data-name="Áåçûìÿííûé ãðàäèåíò 126" x1="298.79" y1="224.97" x2="295.77" y2="285.35" xlink:href="#_Áåçûìÿííûé_ãðàäèåíò_126"/>
    <filter id="luminosity-noclip-30" x="147.47" y="244.94" width="6.81" height="29.95" color-interpolation-filters="sRGB" filterUnits="userSpaceOnUse">
      <feFlood flood-color="#fff" result="bg"/>
      <feBlend in="SourceGraphic" in2="bg"/>
    </filter>
    <filter id="luminosity-noclip-31" x="8492" y="-8327" width="-32766" height="32766" color-interpolation-filters="sRGB" filterUnits="userSpaceOnUse">
      <feFlood flood-color="#fff" result="bg"/>
      <feBlend in="SourceGraphic" in2="bg"/>
    </filter>
    <mask id="mask-29" x="8492" y="-8327" width="-32766" height="32766" maskUnits="userSpaceOnUse"/>
    <linearGradient id="_Áåçûìÿííûé_ãðàäèåíò_325" data-name="Áåçûìÿííûé ãðàäèåíò 325" x1="147.47" y1="259.92" x2="154.28" y2="259.92" gradientUnits="userSpaceOnUse">
      <stop offset="0" stop-color="#fff"/>
      <stop offset="1" stop-color="#e0e0e0"/>
    </linearGradient>
    <mask id="mask-28" x="147.47" y="244.94" width="6.81" height="29.95" maskUnits="userSpaceOnUse">
      <g class="cls-169">
        <g class="cls-166">
          <polygon class="cls-69" points="153.27 247.06 154.28 274.89 147.47 272 147.81 244.94 153.27 247.06"/>
        </g>
      </g>
    </mask>
    <linearGradient id="_Áåçûìÿííûé_ãðàäèåíò_126-11" data-name="Áåçûìÿííûé ãðàäèåíò 126" x1="147.47" y1="259.92" x2="154.28" y2="259.92" xlink:href="#_Áåçûìÿííûé_ãðàäèåíò_126"/>
    <filter id="luminosity-noclip-32" x="155.05" y="247.75" width="2.12" height="20.16" color-interpolation-filters="sRGB" filterUnits="userSpaceOnUse">
      <feFlood flood-color="#fff" result="bg"/>
      <feBlend in="SourceGraphic" in2="bg"/>
    </filter>
    <filter id="luminosity-noclip-33" x="8492" y="-8327" width="-32766" height="32766" color-interpolation-filters="sRGB" filterUnits="userSpaceOnUse">
      <feFlood flood-color="#fff" result="bg"/>
      <feBlend in="SourceGraphic" in2="bg"/>
    </filter>
    <mask id="mask-31" x="8492" y="-8327" width="-32766" height="32766" maskUnits="userSpaceOnUse"/>
    <linearGradient id="_Áåçûìÿííûé_ãðàäèåíò_324" data-name="Áåçûìÿííûé ãðàäèåíò 324" x1="155.05" y1="257.83" x2="157.17" y2="257.83" gradientUnits="userSpaceOnUse">
      <stop offset="0" stop-color="#fff"/>
      <stop offset="1" stop-color="#e0e0e0"/>
    </linearGradient>
    <mask id="mask-30" x="155.05" y="247.75" width="2.12" height="20.16" maskUnits="userSpaceOnUse">
      <g class="cls-133">
        <g class="cls-124">
          <polygon class="cls-88" points="157.17 267.91 155.05 247.75 156.5 248.31 157.17 267.91"/>
        </g>
      </g>
    </mask>
    <linearGradient id="_Áåçûìÿííûé_ãðàäèåíò_126-12" data-name="Áåçûìÿííûé ãðàäèåíò 126" x1="155.05" y1="257.83" x2="157.17" y2="257.83" xlink:href="#_Áåçûìÿííûé_ãðàäèåíò_126"/>
    <filter id="luminosity-noclip-34" x="205.17" y="223.15" width="14.64" height="2.98" color-interpolation-filters="sRGB" filterUnits="userSpaceOnUse">
      <feFlood flood-color="#fff" result="bg"/>
      <feBlend in="SourceGraphic" in2="bg"/>
    </filter>
    <filter id="luminosity-noclip-35" x="8492" y="-8327" width="-32766" height="32766" color-interpolation-filters="sRGB" filterUnits="userSpaceOnUse">
      <feFlood flood-color="#fff" result="bg"/>
      <feBlend in="SourceGraphic" in2="bg"/>
    </filter>
    <mask id="mask-33" x="8492" y="-8327" width="-32766" height="32766" maskUnits="userSpaceOnUse"/>
    <linearGradient id="_Áåçûìÿííûé_ãðàäèåíò_323" data-name="Áåçûìÿííûé ãðàäèåíò 323" x1="212.54" y1="222.77" x2="212.43" y2="226.3" gradientUnits="userSpaceOnUse">
      <stop offset="0" stop-color="#fff"/>
      <stop offset="1" stop-color="#e0e0e0"/>
    </linearGradient>
    <mask id="mask-32" x="205.17" y="223.15" width="14.64" height="2.98" maskUnits="userSpaceOnUse">
      <g class="cls-129">
        <g class="cls-117">
          <polygon class="cls-89" points="205.17 225.87 219.81 223.15 208.32 226.13 205.17 225.87"/>
        </g>
      </g>
    </mask>
    <linearGradient id="_Áåçûìÿííûé_ãðàäèåíò_126-13" data-name="Áåçûìÿííûé ãðàäèåíò 126" x1="212.54" y1="222.77" x2="212.43" y2="226.3" xlink:href="#_Áåçûìÿííûé_ãðàäèåíò_126"/>
    <filter id="luminosity-noclip-36" x="134.66" y="248.54" width="13.15" height="15.83" color-interpolation-filters="sRGB" filterUnits="userSpaceOnUse">
      <feFlood flood-color="#fff" result="bg"/>
      <feBlend in="SourceGraphic" in2="bg"/>
    </filter>
    <filter id="luminosity-noclip-37" x="8492" y="-8327" width="-32766" height="32766" color-interpolation-filters="sRGB" filterUnits="userSpaceOnUse">
      <feFlood flood-color="#fff" result="bg"/>
      <feBlend in="SourceGraphic" in2="bg"/>
    </filter>
    <mask id="mask-35" x="8492" y="-8327" width="-32766" height="32766" maskUnits="userSpaceOnUse"/>
    <linearGradient id="_Áåçûìÿííûé_ãðàäèåíò_322" data-name="Áåçûìÿííûé ãðàäèåíò 322" x1="134.39" y1="234.52" x2="141.81" y2="256.86" gradientUnits="userSpaceOnUse">
      <stop offset="0" stop-color="#fff"/>
      <stop offset="1" stop-color="#e0e0e0"/>
    </linearGradient>
    <mask id="mask-34" x="134.66" y="248.54" width="13.15" height="15.83" maskUnits="userSpaceOnUse">
      <g class="cls-179">
        <g class="cls-135">
          <path class="cls-78" d="M147.81,260.94l-.21,3.43s-11.83-6.72-12.94-15.83h0c2.44,7.02,11.13,11.22,13.15,12.4Z"/>
        </g>
      </g>
    </mask>
    <linearGradient id="_Áåçûìÿííûé_ãðàäèåíò_126-14" data-name="Áåçûìÿííûé ãðàäèåíò 126" x1="134.39" y1="234.52" x2="141.81" y2="256.86" xlink:href="#_Áåçûìÿííûé_ãðàäèåíò_126"/>
    <linearGradient id="_Áåçûìÿííûé_ãðàäèåíò_377" data-name="Áåçûìÿííûé ãðàäèåíò 377" x1="268.91" y1="211.26" x2="252.05" y2="279.43" gradientUnits="userSpaceOnUse">
      <stop offset="0" stop-color="#fde17b"/>
      <stop offset="1" stop-color="#79003c"/>
    </linearGradient>
    <radialGradient id="_Áåçûìÿííûé_ãðàäèåíò_207" data-name="Áåçûìÿííûé ãðàäèåíò 207" cx="348.3" cy="277.46" fx="348.3" fy="277.46" r="50.72" gradientTransform="translate(-2021.55 -120.65) scale(6.68 .88)" gradientUnits="userSpaceOnUse">
      <stop offset="0" stop-color="#fefbb5"/>
      <stop offset=".1" stop-color="#f8f5b0"/>
      <stop offset=".22" stop-color="#e7e4a4"/>
      <stop offset=".36" stop-color="#cbc890"/>
      <stop offset=".52" stop-color="#a4a274"/>
      <stop offset=".69" stop-color="#717051"/>
      <stop offset=".86" stop-color="#353526"/>
      <stop offset="1" stop-color="#000"/>
    </radialGradient>
    <radialGradient id="_Áåçûìÿííûé_ãðàäèåíò_44" data-name="Áåçûìÿííûé ãðàäèåíò 44" cx="685.94" cy="235.88" fx="685.94" fy="235.88" r="283.38" gradientUnits="userSpaceOnUse">
      <stop offset="0" stop-color="#15c447"/>
      <stop offset="1" stop-color="#000"/>
    </radialGradient>
    <radialGradient id="_Áåçûìÿííûé_ãðàäèåíò_44-2" data-name="Áåçûìÿííûé ãðàäèåíò 44" cx="731.47" cy="254.87" fx="731.47" fy="254.87" r="251.57" xlink:href="#_Áåçûìÿííûé_ãðàäèåíò_44"/>
    <radialGradient id="_Áåçûìÿííûé_ãðàäèåíò_120" data-name="Áåçûìÿííûé ãðàäèåíò 120" cx="728.85" cy="199.17" fx="728.85" fy="199.17" r="252.96" gradientUnits="userSpaceOnUse">
      <stop offset="0" stop-color="#15c447"/>
      <stop offset="1" stop-color="#003335"/>
    </radialGradient>
    <radialGradient id="_Áåçûìÿííûé_ãðàäèåíò_44-3" data-name="Áåçûìÿííûé ãðàäèåíò 44" cx="488.28" cy="218.45" fx="488.28" fy="218.45" r="78.96" xlink:href="#_Áåçûìÿííûé_ãðàäèåíò_44"/>
    <radialGradient id="_Áåçûìÿííûé_ãðàäèåíò_120-2" data-name="Áåçûìÿííûé ãðàäèåíò 120" cx="834.67" cy="216.98" fx="834.67" fy="216.98" r="178.49" gradientTransform="translate(0 -18.52) scale(1 1.07)" xlink:href="#_Áåçûìÿííûé_ãðàäèåíò_120"/>
  </defs>
  <g class="cls-118">
    <g id="layer1">
      <g class="cls-148">
        <rect class="cls-167" x="-31.85" width="658.37" height="163.88"/>
        <g>
          <polygon class="cls-62" points="542.82 141.9 513.09 129.88 510.65 129.85 426.49 78.25 402.42 99.54 400.14 100.42 370.08 122.8 367.79 123.68 358.42 128.96 343.56 132.73 384.04 120.47 382.74 120.28 362.78 106.58 358.44 104.45 336.95 122.06 335.55 121.9 331.69 127.65 326.29 131.56 291.5 82.45 289.84 82.45 268.28 47.28 266.21 46 252.88 65.36 251.88 65.64 201.5 129.88 199.8 130.21 160.24 112.24 157.49 111.99 109.04 151.2 78.18 122.67 76.35 122.8 31.09 85.84 -.07 103.69 -.07 202.21 542.82 202.07 542.82 141.9"/>
          <polygon class="cls-57" points="266.21 46 250.98 74.53 263.79 53.29 267.21 54.42 252.24 85.84 261.84 68 270.07 80.82 268.36 99.17 270.07 99.92 273.84 91.63 275.83 92.63 269.24 118.12 301.53 147.56 324.28 128.91 291.5 82.45 280.13 110.35 289.84 82.45 268.28 47.28 266.21 46"/>
          <polygon class="cls-57" points="221.26 121.4 250.98 74.53 235.44 100.17 236.12 101.18 227.89 117.29 221.26 121.4"/>
          <polygon class="cls-57" points="426.49 78.25 412.59 97.97 426.49 81.82 428.37 82.45 419.56 93.89 426.31 88.11 435.68 95.4 424.14 118.44 431.11 107.21 432.48 107.34 427.11 115.52 442.76 129.82 460.82 104.45 462.82 105.95 452.43 121.4 485.41 114.38 426.49 78.25"/>
          <polygon class="cls-57" points="157.49 111.99 150.56 119.53 155.82 115.76 157.49 115.26 148.12 132.1 157.49 134.86 171.06 119.95 172.3 120.12 170.22 122.67 173.72 119.11 176.2 119.49 168.01 131.93 181.42 132.6 187.67 124.56 160.24 112.24 157.49 111.99"/>
          <polygon class="cls-24" points="291.5 82.45 275.05 123.42 291.5 138.41 299.9 99.67 294.55 141.19 297.22 143.63 305.96 102.81 291.5 82.45"/>
          <polygon class="cls-57" points="268.28 47.28 267.21 54.42 252.24 85.84 261.84 68 270.07 80.82 275.05 64.98 268.36 99.17 270.07 99.92 273.84 91.63 280.47 67.16 268.28 47.28"/>
          <polygon class="cls-24" points="439.31 86.11 424.14 118.44 431.11 107.21 439.31 94.96 432.48 107.34 427.11 115.52 434.8 122.55 448.02 96.28 436.68 124.26 439.7 127.02 453.21 94.63 439.31 86.11"/>
          <polygon class="cls-57" points="96.95 140.03 78.18 122.67 51.78 153.44 76.35 122.8 31.09 85.84 19.51 94.22 22.4 104.28 33.71 97.31 34.84 97.29 16 115 37.49 130.42 54.21 111.99 55.9 111.99 32.12 144.13 51.2 121.4 61.3 118.44 19.21 169.67 58.28 177 87.85 145.72 70.86 166.77 96.95 140.03"/>
          <polygon class="cls-57" points="78.18 122.67 51.78 153.44 38.35 171.99 44.81 172.87 78.18 129.82 80.23 131.42 55.09 163.1 67.68 167.06 93.29 136.65 78.18 122.67"/>
          <polygon class="cls-57" points="31.09 85.84 19.51 94.22 21.05 99.58 32.46 88.86 32.99 89.7 22.07 103.14 22.4 104.28 39.67 92.85 31.09 85.84"/>
          <polygon class="cls-57" points="41.15 94.14 21.83 119.18 31.49 126.11 48.46 104.28 49.83 104.28 34.78 128.48 37.49 130.42 57.64 107.52 41.15 94.14"/>
        </g>
        <g>
          <path class="cls-48" d="M224.8,90.37l52.07-1.48c-1.02-9.64,8.02-3.08,8.02-3.08,2.08-35.18,29.25-24.95,29.25-24.95,4.14-25.16,14.61-10.27,14.61-10.27,0,0,15.86-47.94,38.41-41.29,22.55,6.64,14.57,47.54,14.57,47.54,0,0,12.66-10,21.43-4.99,8.53,4.87,.02,26.32-.47,27.5-.01,.04-.02,.05-.02,.05,.09,0,.18-.01,.27-.02,6.15-.25,.47,8,.47,8,25.27-4.88,53.85,.13,55.05,.34,.03,0,.04,0,.04,0l-233.7,2.64Z"/>
          <g class="cls-3">
            <path class="cls-29" d="M380.07,85.3s18.64-6.85,23.8-5.88c5.15,.98-.45,7.96-.45,7.96,0,0-10.36-2.53-23.34-2.08Z"/>
            <path class="cls-56" d="M398.59,87.38s-20.63-3.8-37.2,.63l37.2-.63Z"/>
            <path class="cls-55" d="M403.64,76.64s9.54-25.6-5.36-25.91c-14.89-.31-27.34,16.55-27.34,16.55,0,0,4.4,10.26,32.7,9.37Z"/>
            <path class="cls-19" d="M365.83,80.51s7.46-2.9,15.11,.4c0,0-3.24,7.01-15.11-.4Z"/>
            <path class="cls-21" d="M381.06,79.53s3.98-1.55,8.05,.21c0,0-5.45,4.74-8.05-.21Z"/>
            <path class="cls-36" d="M314.82,80.1s3.8-2.88,7.61,.14c0,0-4.42,2.99-7.61-.14Z"/>
            <path class="cls-43" d="M365.08,66.64s2.14-4.1,7.1-1.94c0,0-2.66,4.39-7.1,1.94Z"/>
            <path class="cls-64" d="M382.19,53.79s5.74-46.17-20.2-45.04c-25.94,1.13-32.74,53.96-32.74,53.96,0,0,7.61,6.01,25.72,4,18.11-2.01,27.22-12.92,27.22-12.92Z"/>
            <path class="cls-30" d="M329.24,53.31s-3.1-6.96-7.92-5.6c-4.81,1.36-6.16,14.32-6.16,14.32,0,0,11.41,2.15,14.07-8.72Z"/>
            <path class="cls-37" d="M320.93,64.13s3-1.19,5.66-.9c2.65,.29,4.36,3.88,4.36,3.88,0,0-6.03,1.31-10.02-2.98Z"/>
            <path class="cls-38" d="M329.76,70.59s-11.45-8.07-26.2-10.31c-14.76-2.25-18.37,20.34-18.37,24.88,0,0,34.88-4.31,44.57-14.57Z"/>
            <path class="cls-58" d="M287.35,88.3s-5.96-5.12-8.06-4.15c-2.1,.96-2,4.75-2,4.75l10.06-.6Z"/>
            <path class="cls-22" d="M287.35,88.9s12.29-5.71,25.73-6.61c13.44-.9,23.04,5.25,23.04,5.25,0,0-31.41,1.91-48.77,1.35Z"/>
            <path class="cls-20" d="M321.32,78.39s6.9-6.71,17.12-8.43c10.21-1.72,29.78,14.08,29.78,14.08,0,0-16.9,1.74-26.07,1.83-9.17,.09-20.84-7.47-20.84-7.47Z"/>
            <path class="cls-51" d="M351.26,70.27s7.03-3.79,12.61-2.88c6.38,1.04,12.75,10.98,12.75,10.98,0,0-17.79,2.48-25.37-8.1Z"/>
          </g>
          <path class="cls-31" d="M458.5,87.73s-75.76-.31-113.41,.19c-37.65,.5-120.29,2.45-120.29,2.45l233.7-2.64Z"/>
          <path class="cls-4" d="M402.7,79.35c-.55-.05-.97,.01-.97,.01,0,0,10.7-24.24-.55-27.28-11.24-3.04-21.16,6.61-21.16,6.61,0,0,9.8-46.09-14-47.14-23.35-1.03-36.43,40.47-36.43,40.47,0,0-3.29-5.6-8.25-4.31-4.96,1.29-6.16,14.31-6.16,14.31,0,0-12.58-4.04-20.94,3.84-8.36,7.87-8.46,21.19-8.46,21.19,0,0-3.9-3.7-6.48-2.9-2.58,.8-2.42,4.74-2.42,4.74-1.02-9.64,8.02-3.08,8.02-3.08,2.08-35.18,29.25-24.95,29.25-24.95,4.14-25.16,14.61-10.27,14.61-10.27,0,0,15.86-47.94,38.41-41.29,22.55,6.64,14.57,47.54,14.57,47.54,0,0,12.66-10,21.43-4.99,8.53,4.87,.02,26.32-.47,27.5Z"/>
          <path class="cls-7" d="M458.46,87.72c-.64-.08-9.99-1.47-26.89-2.12-17.59-.67-28.87,2.32-28.87,2.32,0,0,2.97-4.45,2.4-6.71-.31-1.26-1.33-1.69-2.17-1.83,6.15-.25,.47,8,.47,8,25.27-4.88,53.85,.13,55.05,.34Z"/>
          <path class="cls-32" d="M329.58,52.02s4.27,7.71,18.9,8.91c14.64,1.2,33.25-4.09,33.25-4.09l-8.45,7.23s-3.94-2.68-10.34,3.04c0,0-5.78-.17-11.68,3.15,0,0-9.95,1.22-17.76-3.56-6.77-4.15-3.92-14.69-3.92-14.69Z"/>
          <path class="cls-47" d="M404.97,72.63s-6.78,4.25-15.46,4.91c-8.67,.65-15.61-2.82-15.61-2.82l3.68,3.53s7.19-.46,11.53,1.5l-3.39,3.61s12.42-4.36,16.97-4c0,0,1.53-3.88,2.27-6.72Z"/>
          <path class="cls-25" d="M321.32,78.39s10.46,6.05,25.6,9.51l-9.89,.02s-3.49-2.87-14.6-7.67c0,0-3-3.04-7.61-.14l1.63,1.08-2.48,1.02s-11.68,.34-20.98,4.47l3.85-3.45s25.43-4.19,32.92-12.64l4.59,.36s-9.73,3.93-13.03,7.45Z"/>
        </g>
        <g>
          <path class="cls-42" d="M27.45,75.36s119.2-5.41,158.06-10.45l-22.5-.49s-12.47-29.59-32.13-28.91c-19.67,.68-27.27,18.31-27.27,18.31,0,0-13-4.19-17.22,11.16,0,0-8.62-9.14-15.37,4.66l-43.57,5.73Z"/>
          <path class="cls-31" d="M185.51,64.91s-37.25-.67-72.5,1.63c-35.26,2.3-85.56,8.83-85.56,8.83,0,0,113.93-4.66,158.06-10.45Z"/>
          <path class="cls-13" d="M98.77,65.12s6.58-27.58,29.77-29.18c23.19-1.6,34.48,28.48,34.48,28.48,0,0-47.6,3.47-64.24,.7Z"/>
          <path class="cls-6" d="M102.34,54.12s-13.39-3.96-16.44,13.95c0,0,6.23-.55,8.22-1.69,1.99-1.14,8.22-12.26,8.22-12.26Z"/>
          <path class="cls-11" d="M85.94,64.55s-4.24-3.34-8.49-1.57c-4.24,1.77-6.02,6.43-6.02,6.43,0,0,4.03-.08,7.66-.6s6.84-4.26,6.84-4.26Z"/>
          <path class="cls-23" d="M159.9,58.09s-8.45,3.03-33.18,6.14c-24.72,3.11-26.87-2.61-26.87-2.61l3.76-7.8-.49-.07s-5.63,9.88-9.66,11.65c-4.02,1.77-22.44,4.23-22.44,4.23l11.19-.5s52.96-4.78,80.79-4.72l-3.11-6.33Z"/>
        </g>
        <g>
          <path class="cls-59" d="M128.32,53.62l69.38-2.47-13.73-1.55s-9.61-13.46-17.8-7.9c0,0-1.65-8.94-10.66-9.67s-12.03,19.85-12.03,19.85c0,0-.99-2.49-4-.09l-11.17,1.82Z"/>
          <path class="cls-31" d="M128.32,53.62s38.5-6.03,69.03-2.46l-69.03,2.46Z"/>
          <path class="cls-15" d="M158.18,48.44s5.13-8.28,12.94-7.6,12.86,8.77,12.86,8.77c0,0-18.5-1.36-25.8-1.17Z"/>
          <path class="cls-10" d="M165.72,40.8s-3.82-9.46-11.24-8.21c-7.42,1.25-10.03,15.7-10.25,18.4,0,0,7.93-.64,10.16-1.84,2.23-1.2,7.85-7.52,11.32-8.35Z"/>
        </g>
        <g>
          <path class="cls-34" d="M458.46,41.94l119.39-3.89-25.69-1.9s-.27-23.53-32.28-21.73c-32.02,1.8-53.12,25.11-53.12,25.11,0,0-1.28-4.87-8.3,2.41Z"/>
          <path class="cls-41" d="M458.46,41.94l119.39-3.89s-49.08-3.67-119.39,3.89Z"/>
          <path class="cls-46" d="M548.45,25.21s-11.59,4.39-40.51,9.58c-28.92,5.19-41.18,4.73-41.18,4.73,0,0,10.36-15.46,38.62-22.77,28.25-7.31,40.51,3.25,43.07,8.46Z"/>
          <path class="cls-49" d="M547.52,28.13s-9.5,2.05-20.49,7.34c0,0,20.12,1.69,36.44,1.51,0,0-11.07-7.04-15.95-8.86Z"/>
          <path class="cls-61" d="M459.18,41.21s2.86,.04,4.67-.44c1.8-.49,2.91-1.24,2.91-1.24,0,0-1.65-4.6-7.58,1.68Z"/>
        </g>
        <g>
          <polygon class="cls-54" points="58.78 98.11 142.38 142.36 145.43 142.36 215.3 124.52 217.74 124.52 247.16 106.95 282.28 126.27 283.8 126.44 302.11 138.74 303.34 138.29 342.64 94.02 343.84 94.16 373.18 58.7 376.15 58.7 400.53 94.83 403.05 97.1 421.24 124.54 461.34 118.32 462.44 116.97 541.71 92.41 543.85 93.25 565.44 125.61 585.28 133.98 601.66 111.52 601.66 182.14 -1.54 193.64 -1.54 145 50.3 110.52 52.74 108.91 58.78 98.11"/>
          <polygon class="cls-65" points="342.64 94.02 339.73 98.18 327.38 127.44 342.01 113.87 346.03 111.94 346.66 113.78 344.76 120.15 347.8 113.78 343.84 94.16 342.64 94.02"/>
          <path class="cls-57" d="M425.63,143.25l-18.74-30.34-1.26-4.27,12.46,15.45,3.15,.46-18.19-27.45-4.11,1.51,1.6-3.77-24.38-36.14h-2.97l-8.02,8.07,6.88-6.18,1.14-.32,3.2,5.34-5.62,19.05,2.36-9.86-5.54,18.28,4.57-7.28,4.23,35.09-15.21,25.1,64.46-2.73Zm-51.75-9.27h-1.92l2.74-2.35,1.1-.5-1.92,2.85Zm22.38-3.44l1.38-.67-1.38,11.56h-3.88l3.88-10.89Zm-22.84-46.32l4.18-19.16,1.29-.89-1.45,18.59-4.02,1.46Zm3.72,38.1l3.81-1.25-7.46,10.64-2.82,1.67,6.48-11.06Z"/>
          <polygon class="cls-57" points="366.21 95.84 363.81 97.85 353.4 123.34 365.18 99.23 366.21 95.84"/>
          <polygon class="cls-57" points="307.57 148.25 327.38 127.44 314.2 143.57 317.48 142.32 314.78 147.94 307.57 148.25"/>
          <path class="cls-57" d="M247.16,106.95l2.01,5.67-21.14,20.77,11.27-7.99,3.43-.09-5.18,6.57,2.97-4.44,14.33,8.38-11,15.12,28.64-1.21,9.79-23.46-35.12-19.32Zm-4.96,16.85h-1.98l3.7-4.82,2.68-1.01-4.4,5.82Zm11.89,17.29l-1.07-.5,1.6-2.26,.54,1.13-1.07,1.63Zm1.07-6.95h-1.47l5.62-6.98,2.38-1.5-6.53,8.47Z"/>
          <polygon class="cls-57" points="283.8 126.44 274.36 149.65 296.91 148.25 302.11 138.74 294.15 133.39 288.23 145.98 292.01 131.95 283.8 126.44"/>
          <polygon class="cls-57" points="217.74 124.52 176.61 153.79 170.83 154.03 215.3 124.52 217.74 124.52"/>
          <path class="cls-57" d="M58.78,98.11l-3.78,23.84,11.19-9.05,1.83,1.14-24.68,39.24,4.84-.38,29.21-42.14,8,3.28-22.17,44.54,40.51-1.72,18.53-19.03,3.14,.49-13.25,18.18,18.71-.8,11.53-13.37L58.78,98.11Zm47.53,51.59l4.46-11.36,6.07-6.66,1.38,.99-11.91,17.03Z"/>
          <polygon class="cls-57" points="461.34 118.32 447.58 133.39 456.61 121.2 454.46 121.58 436.72 137.84 421.24 124.54 461.34 118.32"/>
          <polygon class="cls-57" points="511.18 101.87 490.44 126.44 511.18 108.64 529.76 102.97 499.28 140.35 519.4 139.28 533.72 112.9 522.14 139.16 527.77 138.92 549.19 105.09 551.1 106.49 536.17 138.34 565.44 125.61 543.85 93.25 541.71 92.41 511.18 101.87"/>
          <polygon class="cls-57" points="474.1 141.2 490.44 126.44 477.75 141.04 474.1 141.2"/>
          <polygon class="cls-57" points="493.41 112.9 490.44 114.05 480.15 128.08 493.41 112.9"/>
          <polygon class="cls-35" points="86.38 157.69 89.96 154.03 99.64 155.26 100.58 156.73 101.66 156.6 103.56 155.3 108.25 156.23 111.42 156.55 116.52 155.86 117.32 154.88 119.03 154.42 122.8 155.86 123.91 155.43 128.18 155.84 86.38 157.69"/>
          <polygon class="cls-35" points="195.45 152.99 199.11 150.94 204.94 150.94 223.34 151.97 195.45 152.99"/>
          <polygon class="cls-57" points="378.89 64.17 396.61 90.31 383.23 70.51 382.95 71.83 391.81 88.67 380.95 121.08 377.14 122.33 376.38 120.88 374.34 107.17 378.89 89.68 374.12 99.06 372.29 86.75 377.92 82.33 378.89 64.17"/>
          <polygon class="cls-57" points="403.05 97.1 398.93 98.6 390.06 129.29 399.54 107.67 400.61 107.83 386.2 142.92 391.84 142.92 403.05 97.1"/>
          <polygon class="cls-57" points="342.01 113.87 327.91 126.96 336.08 111.5 342.85 97.1 339.73 98.18 342.64 94.02 343.84 94.16 347 111.14 346.03 111.94 342.01 113.87"/>
          <polygon class="cls-57" points="406.9 112.9 395.73 142.65 404.34 142.42 411.12 123.34 412.34 123 405.34 142.39 415.46 142.11 416.08 127.78 406.9 112.9"/>
          <polygon class="cls-57" points="240.52 127.45 246.6 117.98 243.92 118.99 239.3 125.4 235.76 125.63 234.3 126.05 249.17 112.62 247.16 106.95 264 116.18 259.3 127.17 265.38 116.97 269.72 119.37 253.02 146.6 246.6 146.77 254.85 135.82 244.58 129.82 253.69 117.98 243.9 129.42 240.52 127.45"/>
          <polygon class="cls-57" points="268.79 125.27 282.28 126.27 274.36 145.98 263.15 146.32 270.54 125.85 270.31 128.19 260.94 146.32 256.98 146.32 268.79 125.27"/>
          <polygon class="cls-57" points="116.74 128.78 116.84 131.68 110.76 138.34 105.93 150.53 100.58 150.81 108.71 127.36 98.94 150.81 94.53 150.81 106.31 125.77 79.21 151.4 72.09 151.4 106.31 123.26 116.74 128.78"/>
          <polygon class="cls-57" points="126.82 134.15 125.39 138.34 116.65 150.3 130.48 149.98 134.08 139.16 131.08 149.97 135.94 149.83 142.38 142.36 126.82 134.15"/>
          <polygon class="cls-57" points="499.28 140.35 537.38 93.76 541.71 92.41 543.85 93.25 550.35 103 527.77 138.92 525.64 139.16 541.87 105.49 534.78 114.29 524.27 139.07 522.14 139.16 532.8 112.9 519.4 139.28 504.31 140.35 531.51 102.56 501.41 139.74 499.28 140.35"/>
          <polygon class="cls-35" points="-1.54 154.45 601.66 135.8 601.66 200.6 -1.54 200.6 -1.54 154.45"/>
          <polygon class="cls-28" points="58.61 151.97 601.66 135.8 58.61 158.79 58.61 151.97"/>
          <polygon class="cls-50" points="340.34 144.19 353.4 123.34 337.94 144.25 340.34 144.19"/>
          <polygon class="cls-50" points="228.03 133.39 215.87 147.62 217.74 147.57 228.03 133.39"/>
          <polygon class="cls-57" points="217.74 128.35 220.6 135.4 215.71 145.21 218.77 136.78 215.34 142.44 216.77 129.62 217.74 128.35"/>
          <polygon class="cls-57" points="356.19 125.55 360.6 135.65 356.19 133.39 356.19 125.55"/>
          <polygon class="cls-57" points="483.94 119.58 472.91 135.58 448.7 140.17 471.47 135.09 448.7 138.49 450.63 134.03 483.94 119.58"/>
          <polygon class="cls-57" points="44.29 142.65 22.81 142.65 .29 154.44 12.83 154.19 32.24 144.25 34.3 144.08 24.36 153.54 37.71 152.7 44.29 142.65"/>
          <polygon class="cls-57" points="58.78 98.11 55 121.95 58.78 118.9 67.55 102.75 69.31 103.68 66.19 112.9 68.02 114.05 43.34 153.29 74.31 106.49 58.78 98.11"/>
          <polygon class="cls-57" points="551.76 105.11 536.45 137.74 537.62 137.7 552.33 110.45 552.79 111.14 541.34 136.09 548.78 132.85 557.99 114.44 551.76 105.11"/>
          <polygon class="cls-57" points="559.28 116.38 552.09 131.42 552.88 131.07 560.85 118.73 559.28 116.38"/>
          <polygon class="cls-57" points="568.01 126.7 556.25 137.84 566.84 137.27 574.31 129.87 576.38 130.23 570.9 136.83 576.38 136.87 581.03 132.27 568.01 126.7"/>
        </g>
        <path class="cls-113" d="M525,270.67l-558.43,.95-29.97-124.91-1.63-6.79-.48-1.98-.52-2.16h0s-1.55-6.46-1.55-6.46l-.36-1.51-2.25-9.38c17.92,1.18,38.27,3.23,59.9,5.86,3.08,.37,6.17,.75,9.29,1.15,13.87,1.75,28.18,3.71,42.62,5.82,1.32,.19,2.64,.39,3.97,.58h.02c15.2,2.23,30.54,4.62,45.65,7.06h.01c1.14,.18,2.28,.37,3.42,.55h.01c11.59,1.89,23.03,3.8,34.18,5.7h.02c5.27,.91,10.46,1.81,15.58,2.7t.02,0c5.4,.94,10.7,1.88,15.89,2.8h.04c8.92,1.58,17.49,3.12,25.64,4.62,2.5,.45,4.95,.9,7.37,1.35h.02c16.35,3.01,30.74,5.73,42.31,7.95,.22,.04,.45,.09,.67,.13,.01,0,.03,0,.05,0,4.92,.94,9.31,1.8,13.1,2.54h0c10.49,2.05,16.46,3.26,16.46,3.26l28.41,.9h.01l19.38,1.6,211.14,97.66Z"/>
        <path class="cls-16" d="M377.56,200.67c-61.36-6.62-146.49,10.21-146.49,10.21l-47.8-11.48,21.89-2.51,13.71,3.84s88.75-11.97,149.04-5.54l9.65,5.48Z"/>
        <path class="cls-16" d="M319.55,186.21c-61.17-7.12-160.6,11.74-160.6,11.74l-9.06-13.37-.13-2.71-24.89,5.44s124.99-13.6,185.1-6.67l9.58,5.57Z"/>
        <path class="cls-16" d="M301.14,170.79c-80.95-7.37-189.01,8.71-189.01,8.71l-52.08-9.86c24.24-2.63,152.48-15.63,227.64-4.5l13.46,5.65Z"/>
        <path class="cls-16" d="M185.69,155.14c-62.19-.45-119.45,5.95-119.45,5.95l-47.55-10.84c31.87-1.85,88.84-4.51,125.41-2.53t.02,0c5.4,.94,10.7,1.88,15.89,2.8h.04c8.92,1.58,17.49,3.12,25.64,4.62Z"/>
        <path class="cls-16" d="M94.31,139.32c-62.67-.04-117.94,5.56-117.94,5.56l-37.39-8.07-5.39-1.16h0s-25.56-5.53-25.56-5.53l24.01-.93,6.1-.23,1.2,.29,18.47,4.51s38.55-2.08,87.4-2.05h.02c15.2,2.23,30.54,4.62,45.65,7.06h.01c1.14,.18,2.28,.37,3.42,.55Z"/>
        <g class="cls-164">
          <path class="cls-84" d="M28.53,95.32l-.21-.17c.61,.86,1.05,1.69,1.34,2.48-.36-1.12-.73-1.94-1.13-2.31Z"/>
        </g>
        <g class="cls-114">
          <path class="cls-45" d="M283.3,219.91l-22.98,20.94L11.79,216.36l-52.75-7.17-32.68-37.28c112.38-7.99,302.91,29.94,311.21,31.61h.02c28.82,9.62,45.71,16.39,45.71,16.39Z"/>
        </g>
        <path class="cls-156" d="M283.3,219.91l-22.98,20.94L11.79,216.36l-124.49-12.27,15.32-64.35c102.41,2.45,203.74,25.04,276.07,45.62,2.09,.59,4.14,1.18,6.18,1.77,1.18,.34,2.35,.68,3.52,1.03,.88,.25,1.75,.51,2.62,.76,17.7,5.21,33.38,10.2,46.56,14.6h.02c28.82,9.62,45.71,16.39,45.71,16.39Z"/>
        <path class="cls-9" d="M283.3,219.91l-8.94,18.64-234.81-24.93-131.06-23.49,19.06-38.13c133.45,1.7,280.85,67.74,280.85,67.74l60.04-3.4,.43-1.4,14.43,4.97Z"/>
        <path class="cls-161" d="M363.64,229.62l-79.99,8.52-11.08,1.18-33.28-9.17-11.82-3.26,50.04-3.4,5.68-3.51,.11-.07-.25-.09-.37-.14-28.66-10.49,36.77,5.11s70.47,2.38,91.57-5.11c21.11-7.49-18.72,20.43-18.72,20.43Z"/>
        <path class="cls-115" d="M644.83,260.77l-9.19,20.68-137.65-5.65h-.01l-129.92-5.33-72.72-23.72-22.77-7.43,17.88-4.6-2.22-4.61-4.08-8.49s.04,0,.12-.01c3.09-.17,64.82-3.64,90.21-9.84,.03-.01,.05-.02,.07-.02,1.7-.42,3.23-.85,4.57-1.29,.2-.07,.4-.13,.6-.21,1.01-.34,1.89-.7,2.64-1.06,1.17-2.14-29.29-12.12-65-22.35h-.01c-16.64-4.77-34.42-9.6-50.67-13.72-9.73-2.47-18.91-4.68-26.96-6.48-50.38-11.24-86.28-17.75-86.28-17.75l451.56-10.22,1.55,4.75,38.28,117.35Z"/>
        <g class="cls-146">
          <path class="cls-39" d="M268.87,214.94l-.43,1.4-60.04,3.4S97.46,171-2.87,158.14c-3.97-.52-7.93-.98-11.87-1.37-78.2-7.8,2.12-1.96,2.12-1.96,19.33,2.19,38.74,5.46,57.6,9.36,88.75,18.35,165.4,50.66,165.4,50.66l58.49,.11Z"/>
        </g>
        <g>
          <g>
            <path class="cls-157" d="M101.86,205.39l-57.21-6.69-.78-.1-38.32-4.48s-3.22-14.36-1.61-19.62c.24-.78,.58-1.35,1.05-1.66,3.69-2.37,16.4-7.71,18.2-6.6l.12,.11c.24,.24,.47,.79,.7,1.54,0,.01,.01,.02,.01,.03,.08,.27,.16,.57,.24,.89,.01,.01,.01,.03,0,.03,1.26,5.13,2.28,16,2.4,17.33-.04-.85-.22-5.38,.85-5.61,.13-.03,.37,0,.68,.05,2.58,.46,10.58,3.45,11.48,4.24,.04,.04,.09,.09,.13,.15,.62,.79,1.86,3.59,2.91,6.1,.06,.14,.12,.28,.17,.42h0c.83,2.02,1.51,3.75,1.59,3.96-.16-.74-4.01-18.74-2.76-22.81,.11-.36,.29-.72,.53-1.08,2.56-3.8,11.88-7.45,13.86-7.5,1.89-.04,3.48,5.14,3.85,6.47,0,0,0,0,0,.01,.05,.19,.08,.29,.08,.29,0,0,.15-1.83,.93-2.08,.78-.25,6.82,4.19,8.24,5.3,1.18,.93,1.72,9.12,1.87,11.75-.12-3.35-.56-16.19,.39-19.66h0c.13-.48,.29-.77,.47-.85,1.76-.73,7.74,1.19,9.77,3.21,.25,.25,.5,.82,.76,1.62,1.77,5.65,3.44,23.01,3.44,23.01,0,0,.27-6.84,1.27-8.57,.14-.25,.3-.39,.48-.39,1.38-.03,7.92,.96,11.2,5.46,.71,.97,1.25,2.25,1.66,3.67,1.5,5.15,1.32,12.06,1.32,12.06Z"/>
            <g class="cls-155">
              <path class="cls-67" d="M101.85,205.39l-38.25-4.47-18.96-2.22-.78-.1-21.59-2.52-16.73-1.96s-.02-.09-.06-.26c-.08-.39-.25-1.2-.46-2.28-.85-4.37-2.29-13.19-1.09-17.08,.74,3.23,4.45,3.76,4.45,3.76,0,0-4.11,1.13-3.95,3.65,.16,2.51,16.64,2.02,16.63,1.55-.02-.45-.04-1.48-1.47-3.17-1.43-1.68-5.88-1.92-5.88-1.92,0,0,11.72-2.99,10.54-9.52,1.27,5.13,2.29,16,2.4,17.33-.04-.85-.22-5.38,.85-5.62,.13-.03,.36,0,.68,.06-1.93,1.48,9.94,8.57,11.49,4.81,.07-.14,.1-.28,.12-.42,.62,.79,1.86,3.59,2.91,6.09l.27,1.03-.08-.6c.83,2,1.51,3.74,1.6,3.95-.17-.74-4.01-18.74-2.76-22.81,.11-.36,.29-.72,.53-1.07,4.17,8.18,16.46,8.78,17.23,8.16,.62-.51,1.14-5.02,.49-9.18,.05,.18,.08,.3,.08,.3,0,0,.15-1.84,.93-2.08,0,0-.71,6.99,2,8.65,2.72,1.65,6.87-.21,6.24-3.34,1.18,.93,1.72,9.11,1.87,11.74-.12-3.35-.56-16.19,.39-19.66h0c.28-.53,.47-.85,.47-.85,0,0,5.73,7.47,9.25,6.02,.61-.25,1.03-.67,1.28-1.19,1.77,5.66,3.44,23,3.44,23,0,0,.28-6.84,1.27-8.57,.1,1.04,1.06,7.01,10.29,8.52,1.11,.18,2.13,.25,3.06,.21,1.5,5.16,1.31,12.06,1.31,12.06Z"/>
            </g>
          </g>
          <g>
            <path class="cls-159" d="M180.97,218.65l-51.74-10.04s-4.7-14-3.74-17.38c.04-.14,.09-.26,.14-.36,1.49-2.57,8.58-8.78,11.14-9.11,.47-.06,1.05,.44,1.68,1.3,2.79,3.77,6.58,14.44,6.58,14.44,0,0-.09-2.44,.76-3.61,.08-.12,.18-.23,.29-.32,1.15-.96,8.6,2.89,11.15,7.84,.54,1.05,.86,2.22,1.03,3.41,.65,4.43-.78,9.18-.78,9.18l12.13,2.08s-2.23-6.99-1.46-9.07c.04-.11,.08-.2,.14-.27,1.13-1.64,5.7-1.12,7.94,.86,.41,.36,.83,.96,1.23,1.7,1.84,3.3,3.51,9.35,3.51,9.35Z"/>
            <g class="cls-143">
              <path class="cls-70" d="M180.97,218.65l-51.74-10.04s-4.7-14-3.74-17.38c5.24,2.79,13.86-4.48,12.97-8.17,2.79,3.77,6.58,14.44,6.58,14.44,0,0-.09-2.44,.76-3.61v.03s1.52,11.97,9.21,11.57c1.24-.07,2.32-.31,3.25-.68,.65,4.43-.78,9.18-.78,9.18l12.13,2.08s-2.23-6.99-1.46-9.07c.18,.09,.36,.19,.55,.28,4.24,2.11,6.99,2.39,8.76,2,1.84,3.3,3.51,9.35,3.51,9.35Z"/>
            </g>
          </g>
        </g>
        <polygon class="cls-63" points="290.45 234.72 295.34 246.75 272.57 239.32 290.45 234.72"/>
        <path class="cls-63" d="M379.72,210.25c-20.89,7.97-67.46,16.56-91.49,19.86l-4.08-8.49s.04,0,.12-.01c3.09-.17,64.82-3.64,90.21-9.84,.03-.01,.05-.02,.07-.02,1.7-.42,4.97-1.42,5.17-1.5Z"/>
        <polygon class="cls-153" points="286.36 244.6 238.59 230.23 227.47 226.89 277.51 223.49 282.11 234.45 283.65 238.14 286.36 244.6"/>
        <polygon class="cls-52" points="283.05 219.82 282.68 219.68 282.91 219.66 283.05 219.82"/>
        <polygon class="cls-60" points="278.57 224 283.13 236.6 282.11 234.45 277.85 225.53 239.29 230.15 238.59 230.23 227.47 226.89 277.51 223.49 283.19 219.98 283.68 220.55 278.57 224"/>
        <polygon class="cls-96" points="290.79 214.3 290.79 221.11 284.15 221.62 283.19 219.98 254.02 209.19 290.79 214.3"/>
        <g>
          <g>
            <path class="cls-123" d="M190.1,189.97l-56.57-15.3-4.57-1.23-24.35-6.59s-2.87-10.54-.7-11.85c2.17-1.31,11.59,2.27,13,3.57,.06,.06,.12,.13,.18,.21,1.34,1.87,3.05,10.61,3.17,11.19,.02-.18,.08-1.14,.24-2.33h0c.28-1.97,.85-4.53,2.01-5.09,1.57-.77,3.14,5.91,3.66,8.4,.11,.56,.18,.91,.18,.91l2.81,.85,4.48,1.35,1.66,.5s-.58-8.55,1.52-10.7c.09-.09,.2-.18,.33-.27,3.02-2,17.37-3.35,19.89-2.31,.37,.15,.67,.51,.91,1.03h0c1.48,3.18,.8,12.06,.8,12.06,0,0,1.11-5.03,2.67-4.8,1.55,.23-1.06,7.49-1.06,7.49,0,0,6.07-11.02,9.26-11.03l.25,.02c3.09,.59,5.94,4.3,6.76,5.51,.82,1.22-2.1,7.75-2.1,7.75,0,0,4.36,.1,7.61,1,3.13,.86,7.38,4.3,8.13,5.11,.03,.03,.05,.06,.07,.08,.51,.62-.24,4.47-.24,4.47Z"/>
            <g class="cls-106">
              <path class="cls-79" d="M190.1,189.97l-56.57-15.3,.1-.61,1.66,.5s-.58-8.55,1.52-10.7c.09-.09,.2-.18,.33-.27,6.76,2.56,16.78,1.76,20.8-1.28,1.48,3.18,.8,12.06,.8,12.06,0,0,1.11-5.03,2.67-4.8,1.55,.23-1.06,7.49-1.06,7.49,0,0,6.07-11.02,9.26-11.03l.25,.02s-3.24,5.57,6.76,5.51c.82,1.22-2.1,7.75-2.1,7.75,0,0-8.88,.09-8.25,1.27,.58,1.09,17.46,4.7,23.99,4.83,.03,.03,.05,.06,.07,.08,.51,.62-.24,4.47-.24,4.47Z"/>
            </g>
            <g class="cls-130">
              <path class="cls-80" d="M129.16,172.71l-.2,.72-24.35-6.59s-2.87-10.54-.7-11.85c1.93,3.84,9.98,3.92,13.18,3.79,1.34,1.87,3.05,10.61,3.17,11.19,.02-.18,.08-1.14,.24-2.33,.9,1.93,2.19,3.4,3.98,3.35,.64-.02,1.19-.03,1.69-.04,.11,.56,.18,.91,.18,.91l2.81,.85Z"/>
            </g>
          </g>
          <path class="cls-119" d="M204.36,193.66c.04-.27-.95-4.16,1.12-4.66s6.02,1.39,6.69,2.22c.67,.83,1.61,4.17,1.61,4.17,0,0,1.05-2.48,1.57-2.4,.52,.08,12.43,5.4,13.18,6.52,.75,1.12,.73,1.3,.73,1.3l-24.89-7.15Z"/>
        </g>
        <g>
          <path class="cls-172" d="M199.46,215.71c-4.05,.46-8.27,.94-12.64,1.46-8.84,1.06-18.26,2.25-27.93,3.59-3.88,.53-7.79,1.09-11.73,1.67-2.61,.38-5.23,.77-7.85,1.17-7.47,1.15-14.95,2.37-22.3,3.68-.01,0-.02,0-.03,.01-4.37,.77-8.69,1.57-12.93,2.4-31.37,6.12-58.6,13.74-69.51,22.78-2.69,2.23-4.39,4.55-4.92,6.95-.03,.16-.06,.33-.08,.49-.02,.12-.04,.24-.05,.36-.01,.14-.02,.29-.03,.43l9.49,6.45,6.39,4.34h.08l15.62,.85,10.8,.59,24.59,1.34h.06l1.86,.1,15.92,.87,23.76,1.29,9.12,.5,9.44,.51-8.49-.15-8.8-.16-22.76-.4-15.19-.27-3.96-.07-19.72-.36-12.26-.21-14.28-.26-8.87-.16-66.88-1.19-15.32-.27-15.64-41.29-2.03-5.35-4.31-11.38-9.17-24.19c0-.72,17.69-.99,46.47,.07,51.69,1.9,139.15,8.1,224.08,23.81Z"/>
          <path class="cls-5" d="M199.46,215.71c-4.05,.46-8.27,.94-12.64,1.46-8.84,1.06-18.26,2.25-27.93,3.59l-3.2-.09h-.15s-22.35-.65-22.35-.65l-17.13-.49-34.87,1.62h-.02v-.03s.3-1.21,.3-1.21c0,0-59.24-4.86-106.09-5.16-14.25-.08-27.36,.25-37.3,1.27l-9.17-24.19c0-.72,17.69-.99,46.47,.07,51.69,1.9,139.15,8.1,224.08,23.81Z"/>
          <path class="cls-126" d="M195.38,215.49l-77.02,15.15-21.96,48s-18.03-.08-42.25-.77l-24.15-17.63-13.17-9.62h-.01l-.19-.14-4.49-3.28h-.01l-3.66-2.68-2.06-1.5h0s-3.84-2.81-3.84-2.81c1.26-.38,2.52-.76,3.77-1.12,.68-.2,1.35-.4,2.02-.59,8.38-2.45,16.5-4.63,24.37-6.57,.01-.01,.02-.01,.03-.01l2.75,.25c62.09-19.49,119.45-18.04,159.87-16.68Z"/>
          <path class="cls-152" d="M279.43,279.72l-79.55-1.41-18.75-.33h-.42s-6.06-.12-6.06-.12l-15.04-.27-3.02-.05-9.44-.51-9.12-.5-23.76-1.29-15.92-.87-1.86-.1h-.06l-24.59-1.34-10.8-.59-15.62-.85h-.08l-6.39-4.34-9.49-6.45c.01-.14,.02-.29,.03-.43,.01-.12,.03-.25,.04-.37,.02-.16,.05-.32,.09-.48,.51-2.67,2.3-5.35,5.17-7.99,4.64-4.29,12.12-8.48,21.64-12.39,1.62-.67,3.29-1.33,5.03-1.99,5.32-1.99,11.17-3.9,17.42-5.71,5.48-1.58,11.28-3.08,17.31-4.48,11.63-2.7,24.15-5.02,37-6.84,20.33-2.88,41.51-4.5,61.37-4.37,1.64,.01,3.28,.03,4.9,.06,2.92,.53,5.85,1.09,8.77,1.65,1.87,.36,3.75,.74,5.65,1.13-2.06,.24-4.23,.5-6.46,.81-.03,0-.05,.01-.07,.01-.84,.11-1.68,.22-2.54,.35-6.24,.89-12.98,2.03-19.77,3.47-3.05,.64-6.11,1.35-9.14,2.11-3.45,.87-6.86,1.82-10.18,2.85-3,.93-5.95,1.75-8.78,2.68-1.85,.59-3.65,1.23-5.38,1.98-1.79,.77-3.5,1.66-5.11,2.71-.06,.04-.11,.07-.17,.11-2.99,1.99-4.26,4.03-4.05,6.1,.08,.74,.35,1.49,.79,2.23,.89,1.51,2.51,3.03,4.75,4.54,1.59,1.07,3.49,2.14,5.67,3.21,.45,.22,.91,.44,1.39,.66,.24,.11,.49,.23,.74,.34,.36,.16,.72,.32,1.09,.48,.18,.08,.37,.16,.55,.24,2.01,.86,4.19,1.72,6.53,2.57,2.6,.94,5.39,1.88,8.35,2.8,19.58,6.13,46.55,11.8,73.86,16.22,6.24,1,12.44,1.94,18.54,2.79,1.02,.15,2.03,.29,3.03,.42,1.01,.14,2.02,.28,3.02,.41,3,.4,5.97,.78,8.89,1.14Z"/>
          <path class="cls-74" d="M204.49,279.49l-15.66,17.02c-149.11-45.45-15.7-71.69,22.89-78.04-50.17,9.53-130.68,30-7.23,61.02Z"/>
          <path class="cls-75" d="M181.92,287.66l-3.98,11.83c-157.45-39.92-15.44-72.33,23.15-78.68-50.17,9.53-142.62,35.83-19.17,66.85Z"/>
          <path class="cls-75" d="M114.13,297.95l-4.57,13.15c-155.3-51.96-11.81-82.17,27.06-87.61-50.6,8.51-144.27,34.04-22.5,74.46Z"/>
          <path class="cls-18" d="M446.53,287.66l-25.77-1.22-23.69-1.13-116.07-5.52h-.1l-1.47-.07c-2.92-.36-5.89-.74-8.89-1.14-1-.13-2.01-.27-3.02-.41-1-.13-2.02-.27-3.03-.42-6.1-.85-12.3-1.79-18.54-2.79-26.22-4.21-52.95-9.63-73.77-15.49-5.63-1.59-10.82-3.21-15.46-4.85-.33-.11-.65-.23-.98-.35-.76-.27-1.51-.55-2.24-.82-2.06-.78-3.99-1.56-5.77-2.34-.06-.02-.11-.05-.17-.07-1.63-.72-3.14-1.44-4.52-2.16-1.09-.57-2.09-1.14-3-1.71-.24-.14-.47-.29-.7-.44-2.84-1.85-4.72-3.69-5.47-5.51-.1-.22-.17-.45-.23-.68h0s-.02-.06-.02-.08c-.14-.61-.16-1.22-.03-1.82,.31-1.51,1.51-2.99,3.67-4.43,.76-.5,1.54-.99,2.36-1.46,.4-.16,.85-.35,1.38-.58,12.94-5.62,32.77-7.15,32.77-7.15l-.34-3.24c13.51-2.42,27.49-3.39,38.29-3.31,.73,0,1.45,.01,2.16,.02,3.15,.64,6.38,1.34,9.68,2.07,1.56,.35,3.13,.7,4.73,1.07,.41,.09,.83,.18,1.25,.28,3.34,.77,6.74,1.58,10.2,2.42,2.13,.52,4.28,1.05,6.45,1.59,8.58,2.15,17.44,4.48,26.44,6.94,.29,.08,.57,.16,.86,.24,1.2,.33,2.41,.66,3.62,1,1.88,.52,3.76,1.04,5.64,1.57,5.61,1.57,11.25,3.18,16.89,4.83h0c.05,.01,.09,.03,.14,.04h.01c8.42,2.45,16.83,4.95,25.14,7.47,64.11,19.44,121.59,39.65,121.59,39.65Z"/>
          <path class="cls-171" d="M289.77,306.22c-4.04-.8-7.97-1.6-11.8-2.39-52.61-10.91-85.9-21.13-106.96-29.77-10.34-4.25-17.73-8.11-23.01-11.48-1.58-1.02-2.97-1.98-4.19-2.9-.81-.61-1.54-1.19-2.2-1.74-7.4-6.26-6.74-9.94-6.74-9.94l-1.55-8.01c1.11,1.87,3.33,3.76,6.49,5.64,.95,.57,2,1.14,3.12,1.7,1.4,.72,2.93,1.42,4.57,2.13,25.11,10.75,77.33,20.84,122.23,26.35,0,0,4.38,1.51,11.17,3.95,36.68,13.15,143.59,53.18,8.87,26.46Z"/>
          <polygon class="cls-111" points="55.68 233.06 13.51 247.49 12.14 247.2 12.13 247.2 8.5 246.42 6.47 245.99 3.34 245.32 -21.84 239.95 -67.85 230.13 -71.26 226.72 -70.04 226.78 -21.4 229.21 .98 230.33 6.18 230.59 8.22 230.69 32.72 231.91 32.76 231.92 32.77 231.92 55.68 233.06"/>
          <polygon class="cls-177" points="35.13 251.45 30 260.24 19.85 252.83 16.63 250.48 33.95 251.39 35.13 251.45"/>
          <g class="cls-173">
            <polygon class="cls-87" points="6.47 245.99 3.34 245.32 .98 230.33 6.18 230.59 6.34 239.09 6.41 243.01 6.41 243.02 6.47 245.99"/>
          </g>
          <g class="cls-158">
            <polygon class="cls-98" points="34.62 251.32 16.83 250.62 16.82 250.62 16.63 250.48 12.14 247.2 12.13 247.2 8.5 246.42 8.47 244.52 8.36 238.5 8.22 230.69 32.72 231.91 35.51 232.17 34.62 251.32"/>
          </g>
          <g class="cls-160">
            <path class="cls-101" d="M142.93,247.33l.88,12.35c-.81-.61-1.54-1.19-2.2-1.74l-1.8-12.31c.95,.57,2,1.14,3.12,1.7Z"/>
          </g>
          <g class="cls-136">
            <path class="cls-71" d="M280.9,279.76l-2.93,24.07c-52.61-10.91-85.9-21.13-106.96-29.77-10.34-4.25-17.73-8.11-23.01-11.48l-.5-13.12c25.11,10.75,77.33,20.84,122.23,26.35,0,0,4.38,1.51,11.17,3.95Z"/>
          </g>
          <path class="cls-75" d="M130.84,286.82c5.72,1.62,11.99,3.27,18.84,4.92l-.49,.07-17.29,2.57c-157.45-39.92-13.76-67.56,24.83-73.91-13.19,2.51-29.32,6.35-43.46,11.26-.06,.02-.11,.04-.17,.06-30.17,10.51-51.2,25.84-15.09,43.23,.33,.16,.66,.31,1,.47,7.46,3.5,17.25,7.08,29.75,10.72,.68,.2,1.38,.41,2.08,.61Z"/>
          <path class="cls-75" d="M98.01,275.02c-39.32-18.29-16.67-33.09,15.09-43.23-30.17,10.51-51.2,25.84-15.09,43.23Z"/>
          <polygon class="cls-109" points="81.47 219.91 78.66 232.3 61.38 238.64 60.91 238.81 55.94 239.06 55.17 226.3 38.45 223.62 62.19 223.11 81.47 219.91"/>
          <g class="cls-165">
            <polygon class="cls-73" points="62.19 223.11 61.38 238.64 60.91 238.81 55.94 239.06 55.17 226.3 37.17 223.62 62.19 223.11"/>
          </g>
          <path class="cls-5" d="M324.94,248.01c-13.59-3.16-26.77-5.99-39.34-8.52-6.2-1.24-12.25-2.41-18.13-3.51-23.51-4.39-44.31-7.66-60.88-9.99-.39-.06-.78-.12-1.16-.17-6.52-.91-12.37-1.69-17.45-2.32-.03-.01-.05-.01-.08-.01-.24-.03-.47-.06-.71-.09-.29-.04-.58-.07-.87-.11-.43-.05-.86-.11-1.28-.16-4.64-.57-8.54-1.01-11.61-1.35,13.51-2.42,27.49-3.39,38.29-3.31,.73,0,1.45,.01,2.16,.02,3.15,.64,6.38,1.34,9.68,2.07,1.56,.35,3.13,.7,4.73,1.07,.41,.09,.83,.18,1.25,.28,3.34,.77,6.74,1.58,10.2,2.42,2.13,.52,4.28,1.05,6.45,1.59,8.58,2.15,17.44,4.48,26.44,6.94,.29,.08,.57,.16,.86,.24,1.2,.33,2.41,.66,3.62,1,1.88,.52,3.76,1.04,5.64,1.57,5.61,1.57,11.25,3.18,16.89,4.83h0c.05,.01,.09,.03,.14,.04h.01c8.42,2.45,16.83,4.95,25.14,7.47Z"/>
          <g class="cls-147">
            <path class="cls-68" d="M267.47,235.98c-44.87-5.91-93.7-10.96-93.7-10.96l-.34-3.24c15,1.65,49.67,5.91,94.04,14.2Z"/>
          </g>
          <path class="cls-139" d="M536.57,293.96l-2.04-.1-113.09-5.81-4.35-.22-20.02-2.52-225.22-28.35-4.14-.52-3.97-.5-4.27-.54-2.26-2.03-.41-.37-.14-.12-1.18-1.06-2.11-1.89-5.56-4.99s57.47-10.39,137.79-5.45c4.61,.28,9.29,.61,14.04,1.01h0c7.82,.64,15.83,1.43,23.99,2.39,91.74,10.83,195.19,45.06,210.89,50.37,1.34,.46,2.04,.7,2.04,.7Z"/>
          <path class="cls-137" d="M176.83,285.53l-1.23-.57-28.13-12.96,.34-27.06,5.46,2.12,1.78,.69,1.45,.56,14.97,5.82s154.72,3.57,236.42,27.06c81.71,23.49-231.06,4.34-231.06,4.34Z"/>
          <g class="cls-107">
            <path class="cls-76" d="M176.83,285.53l-1.23-.57-4.13-30.83s154.72,3.57,236.42,27.06c81.71,23.49-231.06,4.34-231.06,4.34Z"/>
          </g>
          <g class="cls-176">
            <polygon class="cls-90" points="153.27 247.06 154.28 274.89 147.47 272 147.81 244.94 153.27 247.06"/>
          </g>
          <g class="cls-125">
            <polygon class="cls-83" points="157.17 267.91 155.05 247.75 156.5 248.31 157.17 267.91"/>
          </g>
          <g class="cls-127">
            <polygon class="cls-81" points="205.17 225.87 219.81 223.15 208.32 226.13 205.17 225.87"/>
          </g>
          <polygon class="cls-74" points="33.95 251.39 19.85 252.83 14.7 249.02 33.95 251.39"/>
          <g class="cls-116">
            <path class="cls-93" d="M147.81,260.94l-.21,3.43s-11.83-6.72-12.94-15.83h0c2.44,7.02,11.13,11.22,13.15,12.4Z"/>
          </g>
        </g>
        <path class="cls-102" d="M534.53,293.26v50.23H-24.62V191.9c51.69,1.9,139.15,8.1,224.08,23.81,2.92,.53,5.85,1.09,8.77,1.65,1.87,.36,3.75,.74,5.65,1.13,3.15,.64,6.38,1.34,9.68,2.07,1.56,.35,3.13,.7,4.73,1.07,.41,.09,.83,.18,1.25,.28,3.34,.77,6.74,1.58,10.2,2.42,2.13,.52,4.28,1.05,6.45,1.59,8.58,2.15,17.44,4.48,26.44,6.94,.29,.08,.57,.16,.86,.24,1.2,.33,2.41,.66,3.62,1,1.88,.52,3.76,1.04,5.64,1.57,5.61,1.57,11.25,3.18,16.89,4.83h0c7.82,.64,15.83,1.43,23.99,2.39,91.74,10.83,195.19,45.06,210.89,50.37Z"/>
        <path class="cls-100" d="M471.51,256.72l-52.33,3.74c-5.08-1.21-10.21-2.41-15.24-3.57l67.57-.17Z"/>
        <path class="cls-100" d="M472.46,242.93s-70.51,.49-106.34,6.32c-25.34-4.78-47.45-6.89-62.8-8.71l169.14,2.4Z"/>
        <path class="cls-100" d="M633.32,261.89l-.96,13.98-162.93-2.75c-9.05-2.33-26.95-7.11-46.6-11.83l131.6-4.95,78.89,5.55Z"/>
        <path class="cls-27" d="M431.1,220.1l-39.02,.38,37.29-2.31c.54,.74,.85,1.08,1.72,1.93Z"/>
        <path class="cls-27" d="M434.02,222.97l-15.89-.33,15.15-.29c.61,.44,.05,.18,.74,.63Z"/>
        <ellipse class="cls-1" cx="303.47" cy="124.49" rx="338.55" ry="44.81"/>
        <g>
          <path class="cls-44" d="M1086.77,270.67H459.54s-.07-.02-.11-.03c-1.3-.35-2.62-.71-3.95-1.06-.53-.15-1.06-.29-1.59-.43l-1.71-.45c-.4-.11-.8-.21-1.2-.32-.43-.11-.86-.23-1.29-.34-.83-.22-1.67-.44-2.52-.66-.74-.19-1.49-.38-2.23-.58-.83-.21-1.66-.43-2.5-.64-.31-.08-.63-.16-.95-.25-.89-.23-1.78-.45-2.67-.68-1.14-.28-2.28-.57-3.43-.86-.58-.15-1.17-.29-1.75-.44-.59-.15-1.18-.29-1.77-.44s-1.19-.29-1.78-.43c-.29-.07-.58-.15-.87-.22-.89-.22-1.78-.44-2.68-.66-1.23-.29-2.46-.59-3.7-.89-1.17-.28-2.35-.56-3.54-.84h-.12c-2.54-.59-5.09-1.2-7.64-1.8-.5-.12-1-.23-1.5-.35-2.79-.64-5.6-1.27-8.43-1.89-.07-.01-.15-.03-.23-.05h0c-4.22-.92-8.47-1.83-12.75-2.71-2.14-.44-4.29-.88-6.44-1.3-2.12-.43-4.24-.84-6.36-1.25-.04-.01-.07-.01-.11-.02h-.07c-2.06-.4-4.14-.78-6.22-1.16-1.7-.31-3.4-.64-5.1-.94-2.97-.53-5.95-1.05-8.93-1.54-3.36-.56-6.73-1.1-10.08-1.61-.19-.03-.37-.05-.56-.08-.82-.12-1.64-.25-2.46-.37-.23-.03-.46-.07-.69-.1-.94-.14-1.88-.28-2.82-.41-1.41-.2-2.83-.4-4.23-.59-.29-.04-.57-.08-.86-.12-.47-.06-.95-.13-1.42-.19-.92-.12-1.83-.24-2.74-.35-.82-.11-1.63-.22-2.45-.32h-.04c-.16-.02-.32-.04-.47-.06-.98-.12-1.96-.24-2.93-.35-2.04-.24-4.07-.47-6.09-.69-.99-.11-1.97-.21-2.94-.31-.73-.08-1.47-.15-2.2-.22-1.51-.15-3-.3-4.49-.43-1.41-.14-2.81-.27-4.2-.39h-.03c-1.36-.13-2.7-.24-4.04-.35h0c-2.58-.76-5.17-1.5-7.75-2.24-.23-.07-.47-.14-.71-.2-.97-.28-1.93-.56-2.9-.83-1.21-.35-2.42-.69-3.62-1.02l5.79-1.49-2.22-4.61-2.65-5.51h0s31.16,.89,31.16,.89h.02l323.55,9.31,347.57,9.99h.01l23.81,.69h0l74.82,2.15,.1,9.21h0s.14,13.83,.14,13.83Z"/>
          <path class="cls-44" d="M508.26,186s112.64,5.35,189.52,6.16c76.88,.81,154.28-3.08,154.28-3.08l-343.8-3.08Z"/>
          <path class="cls-14" d="M1086.53,242.5v5.13l-74.82-2.15h0l-23.81-.69h-.01l-347.57-9.99-323.55-9.31h-.02l-31.16-.89h0s-.23-.48-.23-.48l32.66,.75,1.19,.03,.68,.02,319.99,7.34,446.66,10.24Z"/>
          <path class="cls-12" d="M1087.23,256.84s-.2,0-.6,.01c-10.02,.11-144.21,1.54-310.96,1.78h-.54c-41.99,.06-86.04,.04-130.69-.1-20.81-.06-41.75-.15-62.67-.27h-.06c-22-.12-43.97-.28-65.75-.47h-.09c-9.21-.08-18.4-.17-27.53-.27-8.13-.08-16.21-.17-24.25-.27h-.03c-10.99-.13-21.88-.27-32.66-.43h-.31c-4.02-.06-8.03-.12-12.02-.18-.48-.01-.95-.01-1.43-.02-5.46-.08-10.87-.17-16.26-.26h0c-4.22-.92-8.47-1.83-12.75-2.71-2.14-.44-4.29-.88-6.44-1.3-2.12-.43-4.24-.84-6.36-1.25-.04-.01-.07-.01-.11-.02l26.29,.21h.93s21.1,.18,21.1,.18h1.5s5.46,.06,5.46,.06h.85l211.68,1.72,443.11,3.59h.6Z"/>
          <path class="cls-2" d="M1086.53,192.27v3l-451.9,6.88-226.92,3.45-30.39,.46h-.02c-1.67-.71-3.73-1.51-6.12-2.38l262.99-4.2,452.36-7.21Z"/>
          <path class="cls-17" d="M599.21,231.31c-10.32-.23-147.87-3.48-143.06-5.81,5-2.43,140.27-7.83,92.36-12.69-32.8-3.33-118.25-5-168.89-5.71-.01-.01-.01,0-.01,0-.01-.01-.02,0-.02,0-.01-.01-.02,0-.02,0-.63-.32-1.38-.67-2.21-1.04l30.35-.46s183.79,1.27,171.66,7.88c-12.12,6.62-117.53,11.14-117.37,12.29,.15,1.1,127.28,5.22,137.21,5.54Z"/>
          <path class="cls-8" d="M612.11,231.33s41.37-6.58,97.1-9.58c55.72-3,201.24-.86,211.34-3.28,10.11-2.42-93.22-13.48-97.26-15.1-4.04-1.62,263.24-8.1,263.24-8.1,0,0-274.04,5.6-277.14,7.83s94.1,12.15,96.19,13.16c2.08,1.01-179.73,3.31-222.02,5.5-42.29,2.19-100.74,9.03-100.74,9.03l29.3,.56Z"/>
          <path class="cls-53" d="M1086.77,243.38v1.41h-.24c-2.96,.03-32.7,.29-74.82,.69h0c-108.13,1.03-297.82,2.96-325.35,4.17-21.58,.95-34.08,1.5-43.25,1.17-7.33-.27-12.54-1.1-18.55-2.75-29.76-8.18-131.91-9.22-243.81-6.44h-.25c-13.13,.33-26.38,.71-39.68,1.14h-.01c-.34,.01-.68,.02-1.03,.04,0-.01-.01-.01-.01,0-4.36,.14-8.71,.28-13.07,.43h-.12c-.98-.12-1.96-.24-2.93-.35-6.76-.8-13.42-1.47-19.95-2.04,.53-.03,1.07-.05,1.61-.08h.01c.99-.05,2.02-.1,3.02-.16h.14c65.8-3.13,145.23-5.78,203.09-4.05,116.94,3.49,112.7,8.84,130.98,11.03,.12,.01,.24,.03,.36,.04,12.87,1.49,218.15-1.08,344.98-2.84h.01c54.96-.75,95.19-1.35,98.64-1.4,.16-.01,.24-.01,.24-.01Z"/>
          <g>
            <polygon class="cls-40" points="589.75 189.67 760.89 185.55 843.12 189.67 589.75 189.67"/>
            <path class="cls-44" d="M1090.89,167.87l-461.46,4.38-353.14,3.35c-3.25-.85-6.46-1.68-9.61-2.48-8.01-2.03-15.65-3.89-22.59-5.49l384.24-1.74,462.44-2.1,.12,4.08Z"/>
          </g>
        </g>
        <g>
          <path class="cls-103" d="M380.82,214.14c1.02,0,1.03-1.59,0-1.59s-1.03,1.59,0,1.59Z"/>
          <path class="cls-103" d="M331.56,220.96c1.02,0,1.03-1.59,0-1.59s-1.03,1.59,0,1.59Z"/>
          <path class="cls-103" d="M302.42,232.59c1.03,0,1.03-1.59,0-1.59s-1.03,1.59,0,1.59Z"/>
          <path class="cls-103" d="M355.67,197.33c1.02,0,1.03-1.59,0-1.59s-1.03,1.59,0,1.59Z"/>
          <path class="cls-103" d="M340.3,244.18c1.02,0,1.03-1.59,0-1.59s-1.03,1.59,0,1.59Z"/>
          <path class="cls-103" d="M431.42,251.65c1.03,0,1.03-1.59,0-1.59s-1.03,1.59,0,1.59Z"/>
          <path class="cls-103" d="M336,186.93c1.02,0,1.03-1.59,0-1.59s-1.03,1.59,0,1.59Z"/>
          <path class="cls-103" d="M366,247.33c1.03,0,1.03-1.59,0-1.59s-1.03,1.59,0,1.59Z"/>
          <path class="cls-103" d="M438.55,259.52c1.02,0,1.03-1.59,0-1.59s-1.03,1.59,0,1.59Z"/>
          <path class="cls-103" d="M345.52,220.48c1.02,0,1.03-1.59,0-1.59s-1.03,1.59,0,1.59Z"/>
          <path class="cls-103" d="M326.76,231.62c1.02,0,1.03-1.59,0-1.59s-1.03,1.59,0,1.59Z"/>
          <path class="cls-103" d="M293.98,227.1c1.03,0,1.03-1.59,0-1.59s-1.03,1.59,0,1.59Z"/>
          <path class="cls-103" d="M315.87,236.66c1.02,0,1.03-1.59,0-1.59s-1.03,1.59,0,1.59Z"/>
          <path class="cls-103" d="M356.25,223.1c1.02,0,1.03-1.59,0-1.59s-1.03,1.59,0,1.59Z"/>
          <path class="cls-103" d="M360.9,217.5c1.03,0,1.03-1.59,0-1.59s-1.03,1.59,0,1.59Z"/>
          <path class="cls-103" d="M350.33,222.93c1.03,0,1.03-1.59,0-1.59s-1.03,1.59,0,1.59Z"/>
          <path class="cls-103" d="M399.67,246.48c1.03,0,1.03-1.59,0-1.59s-1.03,1.59,0,1.59Z"/>
          <path class="cls-103" d="M376.19,196.69c1.03,0,1.03-1.59,0-1.59s-1.03,1.59,0,1.59Z"/>
          <path class="cls-103" d="M424.78,252.44c1.03,0,1.03-1.59,0-1.59s-1.03,1.59,0,1.59Z"/>
          <path class="cls-103" d="M444.89,259.52c1.03,0,1.03-1.59,0-1.59s-1.03,1.59,0,1.59Z"/>
          <path class="cls-103" d="M370.17,200.76c1.02,0,1.03-1.59,0-1.59s-1.03,1.59,0,1.59Z"/>
          <path class="cls-103" d="M418.35,257.74c1.02,0,1.03-1.59,0-1.59s-1.03,1.59,0,1.59Z"/>
          <path class="cls-103" d="M402.46,252.74c1.02,0,1.03-1.59,0-1.59s-1.03,1.59,0,1.59Z"/>
          <path class="cls-103" d="M480.11,266.67c1.02,0,1.03-1.59,0-1.59s-1.03,1.59,0,1.59Z"/>
          <path class="cls-103" d="M344.33,188.67c1.03,0,1.03-1.59,0-1.59s-1.03,1.59,0,1.59Z"/>
          <path class="cls-103" d="M381.59,218.82c1.02,0,1.03-1.59,0-1.59s-1.03,1.59,0,1.59Z"/>
          <path class="cls-103" d="M370.72,219.01c1.03,0,1.03-1.59,0-1.59s-1.03,1.59,0,1.59Z"/>
          <path class="cls-103" d="M322.44,186.78c1.03,0,1.03-1.59,0-1.59s-1.03,1.59,0,1.59Z"/>
          <path class="cls-103" d="M443.15,262.88c1.02,0,1.03-1.59,0-1.59s-1.03,1.59,0,1.59Z"/>
          <path class="cls-103" d="M413.5,248.35c1.03,0,1.03-1.59,0-1.59s-1.03,1.59,0,1.59Z"/>
          <path class="cls-103" d="M376.95,245.63c1.02,0,1.03-1.59,0-1.59s-1.03,1.59,0,1.59Z"/>
          <path class="cls-103" d="M377.35,203.34c1.02,0,1.03-1.59,0-1.59s-1.03,1.59,0,1.59Z"/>
          <path class="cls-103" d="M318.61,225.16c1.03,0,1.03-1.59,0-1.59s-1.03,1.59,0,1.59Z"/>
          <path class="cls-103" d="M344.67,192.67c1.02,0,1.03-1.59,0-1.59s-1.03,1.59,0,1.59Z"/>
          <path class="cls-103" d="M438.55,259.52c1.02,0,1.03-1.59,0-1.59s-1.03,1.59,0,1.59Z"/>
          <path class="cls-103" d="M294.32,232.96c1.03,0,1.03-1.59,0-1.59s-1.03,1.59,0,1.59Z"/>
          <path class="cls-103" d="M307.92,238.76c1.03,0,1.03-1.59,0-1.59s-1.03,1.59,0,1.59Z"/>
          <path class="cls-103" d="M345.41,242.33c1.03,0,1.03-1.59,0-1.59s-1.03,1.59,0,1.59Z"/>
          <path class="cls-103" d="M308.61,223.1c1.02,0,1.03-1.59,0-1.59s-1.03,1.59,0,1.59Z"/>
          <path class="cls-103" d="M464.33,265.78c1.02,0,1.03-1.59,0-1.59s-1.03,1.59,0,1.59Z"/>
          <path class="cls-103" d="M381.33,251c1.03,0,1.03-1.59,0-1.59s-1.03,1.59,0,1.59Z"/>
          <path class="cls-103" d="M297.6,179.85c1.03,0,1.03-1.59,0-1.59s-1.03,1.59,0,1.59Z"/>
          <path class="cls-103" d="M314.24,180.91c1.02,0,1.03-1.59,0-1.59s-1.03,1.59,0,1.59Z"/>
          <path class="cls-103" d="M458.24,254.8c1.02,0,1.03-1.59,0-1.59s-1.03,1.59,0,1.59Z"/>
          <path class="cls-103" d="M315.76,221.46c1.02,0,1.03-1.59,0-1.59s-1.03,1.59,0,1.59Z"/>
        </g>
      </g>
    </g>
  </g>
</svg>