<?xml version="1.0" encoding="UTF-8"?>
<svg xmlns="http://www.w3.org/2000/svg" xmlns:xlink="http://www.w3.org/1999/xlink" viewBox="0 0 600 270">
  <defs>
    <style>
      .cls-1 {
        fill: url(#linear-gradient-2);
      }

      .cls-2, .cls-3 {
        fill: #fff;
      }

      .cls-4 {
        fill: #75403d;
      }

      .cls-5 {
        fill: url(#_Áåçûìÿííûé_ãðàäèåíò_261);
      }

      .cls-5, .cls-6, .cls-7, .cls-8, .cls-9, .cls-10, .cls-11, .cls-12, .cls-13, .cls-14, .cls-15, .cls-16, .cls-17, .cls-18, .cls-19, .cls-20, .cls-21, .cls-22, .cls-23, .cls-24, .cls-25, .cls-26, .cls-27, .cls-28, .cls-29, .cls-30 {
        mix-blend-mode: screen;
      }

      .cls-31 {
        fill: #ffc;
      }

      .cls-31, .cls-6, .cls-7, .cls-8, .cls-3, .cls-9, .cls-10, .cls-11, .cls-12, .cls-13, .cls-32, .cls-14, .cls-15, .cls-33, .cls-16, .cls-17, .cls-18, .cls-19, .cls-20, .cls-21, .cls-22, .cls-23, .cls-24, .cls-34, .cls-25, .cls-26, .cls-27, .cls-28, .cls-35 {
        fill-rule: evenodd;
      }

      .cls-6 {
        fill: url(#_Áåçûìÿííûé_ãðàäèåíò_254-4);
      }

      .cls-36 {
        fill: #45162d;
      }

      .cls-36, .cls-37, .cls-23, .cls-29 {
        opacity: .6;
      }

      .cls-7 {
        fill: url(#_Áåçûìÿííûé_ãðàäèåíò_254);
      }

      .cls-8 {
        fill: url(#_Áåçûìÿííûé_ãðàäèåíò_104-15);
      }

      .cls-8, .cls-38, .cls-10, .cls-12, .cls-13, .cls-14, .cls-16, .cls-17, .cls-21, .cls-27, .cls-28 {
        opacity: .5;
      }

      .cls-39 {
        fill: #663939;
        opacity: .8;
      }

      .cls-39, .cls-34 {
        mix-blend-mode: multiply;
      }

      .cls-9 {
        fill: url(#_Áåçûìÿííûé_ãðàäèåíò_104);
      }

      .cls-10 {
        fill: url(#_Áåçûìÿííûé_ãðàäèåíò_184-2);
      }

      .cls-40 {
        isolation: isolate;
      }

      .cls-11 {
        fill: url(#_Áåçûìÿííûé_ãðàäèåíò_254-2);
      }

      .cls-37 {
        fill: #242c4d;
      }

      .cls-12 {
        fill: url(#_Áåçûìÿííûé_ãðàäèåíò_104-13);
      }

      .cls-13 {
        fill: url(#_Áåçûìÿííûé_ãðàäèåíò_104-9);
      }

      .cls-32 {
        fill: url(#_Áåçûìÿííûé_ãðàäèåíò_49-2);
      }

      .cls-32, .cls-41 {
        mix-blend-mode: overlay;
      }

      .cls-14 {
        fill: url(#_Áåçûìÿííûé_ãðàäèåíò_104-12);
      }

      .cls-42 {
        mix-blend-mode: soft-light;
      }

      .cls-43 {
        fill: #c78282;
      }

      .cls-15 {
        fill: url(#_Áåçûìÿííûé_ãðàäèåíò_104-2);
      }

      .cls-33 {
        fill: #796782;
      }

      .cls-16 {
        fill: url(#_Áåçûìÿííûé_ãðàäèåíò_104-10);
      }

      .cls-17 {
        fill: url(#_Áåçûìÿííûé_ãðàäèåíò_104-11);
      }

      .cls-18 {
        fill: url(#_Áåçûìÿííûé_ãðàäèåíò_104-7);
      }

      .cls-19 {
        fill: url(#_Áåçûìÿííûé_ãðàäèåíò_104-5);
      }

      .cls-20 {
        fill: url(#_Áåçûìÿííûé_ãðàäèåíò_104-6);
      }

      .cls-44 {
        fill: #ffffd4;
      }

      .cls-21 {
        fill: url(#_Áåçûìÿííûé_ãðàäèåíò_104-16);
      }

      .cls-22 {
        fill: url(#_Áåçûìÿííûé_ãðàäèåíò_104-3);
      }

      .cls-23, .cls-29 {
        fill: #a2e7f8;
      }

      .cls-45 {
        clip-path: url(#clippath);
      }

      .cls-24 {
        fill: url(#_Áåçûìÿííûé_ãðàäèåíò_254-3);
      }

      .cls-34 {
        fill: #5e85e1;
        opacity: .15;
      }

      .cls-25 {
        fill: url(#_Áåçûìÿííûé_ãðàäèåíò_104-4);
      }

      .cls-46 {
        fill: none;
      }

      .cls-26 {
        fill: url(#_Áåçûìÿííûé_ãðàäèåíò_104-8);
      }

      .cls-27 {
        fill: url(#_Áåçûìÿííûé_ãðàäèåíò_184);
      }

      .cls-28 {
        fill: url(#_Áåçûìÿííûé_ãðàäèåíò_104-14);
      }

      .cls-47 {
        fill: url(#linear-gradient-3);
      }

      .cls-48 {
        fill: url(#linear-gradient);
      }

      .cls-35 {
        fill: url(#_Áåçûìÿííûé_ãðàäèåíò_49);
      }

      .cls-49 {
        fill: #865a8a;
      }

      .cls-30 {
        fill: url(#_Áåçûìÿííûé_ãðàäèåíò_256);
      }
    </style>
    <clipPath id="clippath">
      <rect class="cls-46" width="600" height="270"/>
    </clipPath>
    <linearGradient id="linear-gradient" x1="307.25" y1="121.63" x2="307.25" y2="1.61" gradientUnits="userSpaceOnUse">
      <stop offset="0" stop-color="#f1cec7"/>
      <stop offset=".67" stop-color="#f8e6e1"/>
      <stop offset="1" stop-color="#c0c8dd"/>
    </linearGradient>
    <radialGradient id="_Áåçûìÿííûé_ãðàäèåíò_49" data-name="Áåçûìÿííûé ãðàäèåíò 49" cx="252.48" cy="176.52" fx="252.48" fy="176.52" r="202.24" gradientUnits="userSpaceOnUse">
      <stop offset="0" stop-color="#bc3f35"/>
      <stop offset=".27" stop-color="#b83b35"/>
      <stop offset=".49" stop-color="#ae3238"/>
      <stop offset=".71" stop-color="#9c223d"/>
      <stop offset=".91" stop-color="#830c45"/>
      <stop offset="1" stop-color="#760049"/>
    </radialGradient>
    <linearGradient id="_Áåçûìÿííûé_ãðàäèåíò_184" data-name="Áåçûìÿííûé ãðàäèåíò 184" x1="61.5" y1="184.01" x2="335.36" y2="184.01" gradientUnits="userSpaceOnUse">
      <stop offset="0" stop-color="#dc3f2f"/>
      <stop offset="0" stop-color="#db3e2e"/>
      <stop offset=".17" stop-color="#af362d"/>
      <stop offset=".33" stop-color="#8b302c"/>
      <stop offset=".5" stop-color="#6f2b2b"/>
      <stop offset=".67" stop-color="#5a272b"/>
      <stop offset=".83" stop-color="#4e252b"/>
      <stop offset="1" stop-color="#4b252b"/>
    </linearGradient>
    <linearGradient id="_Áåçûìÿííûé_ãðàäèåíò_184-2" data-name="Áåçûìÿííûé ãðàäèåíò 184" x1="103.83" y1="190.87" x2="368.86" y2="190.87" xlink:href="#_Áåçûìÿííûé_ãðàäèåíò_184"/>
    <linearGradient id="_Áåçûìÿííûé_ãðàäèåíò_104" data-name="Áåçûìÿííûé ãðàäèåíò 104" x1="276.64" y1="195.09" x2="276.64" y2="85.49" gradientTransform="translate(92.34 -71.19) scale(.74 3.07)" gradientUnits="userSpaceOnUse">
      <stop offset="0" stop-color="#000"/>
      <stop offset=".12" stop-color="#040200"/>
      <stop offset=".25" stop-color="#120b02"/>
      <stop offset=".39" stop-color="#2a1905"/>
      <stop offset=".53" stop-color="#4b2c0a"/>
      <stop offset=".68" stop-color="#754510"/>
      <stop offset=".84" stop-color="#a76317"/>
      <stop offset=".98" stop-color="#de841f"/>
    </linearGradient>
    <linearGradient id="_Áåçûìÿííûé_ãðàäèåíò_104-2" data-name="Áåçûìÿííûé ãðàäèåíò 104" x1="153.06" y1="182.08" x2="153.06" y2="72.48" gradientTransform="translate(59.74 113.82) rotate(-45) scale(.74 3.07)" xlink:href="#_Áåçûìÿííûé_ãðàäèåíò_104"/>
    <linearGradient id="_Áåçûìÿííûé_ãðàäèåíò_104-3" data-name="Áåçûìÿííûé ãðàäèåíò 104" x1="103.58" y1="151.33" x2="103.58" y2="41.73" gradientTransform="translate(168.95 267.52) rotate(-90) scale(.74 3.07)" xlink:href="#_Áåçûìÿííûé_ãðàäèåíò_104"/>
    <linearGradient id="_Áåçûìÿííûé_ãðàäèåíò_104-4" data-name="Áåçûìÿííûé ãðàäèåíò 104" x1="159.01" y1="121.62" x2="159.01" y2="12.02" gradientTransform="translate(353.96 300.12) rotate(-135) scale(.74 3.07)" xlink:href="#_Áåçûìÿííûé_ãðàäèåíò_104"/>
    <linearGradient id="_Áåçûìÿííûé_ãðàäèåíò_104-5" data-name="Áåçûìÿííûé ãðàäèåíò 104" x1="285.05" y1="109.59" x2="285.05" y2="0" gradientTransform="translate(507.66 190.91) rotate(-180) scale(.74 3.07)" xlink:href="#_Áåçûìÿííûé_ãðàäèåíò_104"/>
    <linearGradient id="_Áåçûìÿííûé_ãðàäèåíò_104-6" data-name="Áåçûìÿííûé ãðàäèåíò 104" x1="409.71" y1="123.06" x2="409.71" y2="13.46" gradientTransform="translate(540.26 5.91) rotate(135) scale(.74 3.07)" xlink:href="#_Áåçûìÿííûé_ãðàäèåíò_104"/>
    <linearGradient id="_Áåçûìÿííûé_ãðàäèåíò_104-7" data-name="Áåçûìÿííûé ãðàäèåíò 104" x1="458.11" y1="153.35" x2="458.11" y2="43.76" gradientTransform="translate(431.05 -147.79) rotate(90) scale(.74 3.07)" xlink:href="#_Áåçûìÿííûé_ãðàäèåíò_104"/>
    <linearGradient id="_Áåçûìÿííûé_ãðàäèåíò_104-8" data-name="Áåçûìÿííûé ãðàäèåíò 104" x1="403.76" y1="183.51" x2="403.76" y2="73.91" gradientTransform="translate(246.04 -180.4) rotate(45) scale(.74 3.07)" xlink:href="#_Áåçûìÿííûé_ãðàäèåíò_104"/>
    <linearGradient id="_Áåçûìÿííûé_ãðàäèåíò_104-9" data-name="Áåçûìÿííûé ãðàäèåíò 104" x1="225.84" y1="432.28" x2="225.84" y2="168.61" gradientTransform="translate(15.65 172.39) rotate(-32.98)" xlink:href="#_Áåçûìÿííûé_ãðàäèåíò_104"/>
    <linearGradient id="_Áåçûìÿííûé_ãðàäèåíò_104-10" data-name="Áåçûìÿííûé ãðàäèåíò 104" x1="191.57" y1="250.13" x2="191.57" y2="-13.54" gradientTransform="translate(412.55 344.19) rotate(-122.98)" xlink:href="#_Áåçûìÿííûé_ãðàäèåíò_104"/>
    <linearGradient id="_Áåçûìÿííûé_ãðàäèåíò_104-11" data-name="Áåçûìÿííûé ãðàäèåíò 104" x1="373.73" y1="215.85" x2="373.73" y2="-47.82" gradientTransform="translate(584.35 -52.71) rotate(147.02)" xlink:href="#_Áåçûìÿííûé_ãðàäèåíò_104"/>
    <linearGradient id="_Áåçûìÿííûé_ãðàäèåíò_104-12" data-name="Áåçûìÿííûé ãðàäèåíò 104" x1="408" y1="398.01" x2="408" y2="134.34" gradientTransform="translate(187.45 -224.51) rotate(57.02)" xlink:href="#_Áåçûìÿííûé_ãðàäèåíò_104"/>
    <linearGradient id="_Áåçûìÿííûé_ãðàäèåíò_104-13" data-name="Áåçûìÿííûé ãðàäèåíò 104" x1="306.18" y1="533.92" x2="306.18" y2="188.94" gradientTransform="translate(3.93 -15.37) rotate(2.95)" xlink:href="#_Áåçûìÿííûé_ãðàäèåíò_104"/>
    <linearGradient id="_Áåçûìÿííûé_ãðàäèåíò_104-14" data-name="Áåçûìÿííûé ãðàäèåíò 104" x1="170.46" y1="411.5" x2="170.46" y2="66.52" gradientTransform="translate(224.79 355.91) rotate(-87.05)" xlink:href="#_Áåçûìÿííûé_ãðàäèåíò_104"/>
    <linearGradient id="_Áåçûìÿííûé_ãðàäèåíò_104-15" data-name="Áåçûìÿííûé ãðàäèåíò 104" x1="292.51" y1="275.77" x2="292.51" y2="-69.21" gradientTransform="translate(596.07 135.05) rotate(-177.05)" xlink:href="#_Áåçûìÿííûé_ãðàäèåíò_104"/>
    <linearGradient id="_Áåçûìÿííûé_ãðàäèåíò_104-16" data-name="Áåçûìÿííûé ãðàäèåíò 104" x1="428.6" y1="398.19" x2="428.6" y2="53.21" gradientTransform="translate(375.21 -236.23) rotate(92.95)" xlink:href="#_Áåçûìÿííûé_ãðàäèåíò_104"/>
    <radialGradient id="_Áåçûìÿííûé_ãðàäèåíò_49-2" data-name="Áåçûìÿííûé ãðàäèåíò 49" cx="306.44" cy="151.25" fx="306.44" fy="151.25" r="240.11" xlink:href="#_Áåçûìÿííûé_ãðàäèåíò_49"/>
    <linearGradient id="linear-gradient-2" x1="307.03" y1="278.81" x2="307.03" y2="205.34" xlink:href="#linear-gradient"/>
    <linearGradient id="_Áåçûìÿííûé_ãðàäèåíò_254" data-name="Áåçûìÿííûé ãðàäèåíò 254" x1="287.7" y1="211.39" x2="290.45" y2="250.29" gradientUnits="userSpaceOnUse">
      <stop offset="0" stop-color="#000"/>
      <stop offset=".99" stop-color="#8abbb1"/>
    </linearGradient>
    <linearGradient id="_Áåçûìÿííûé_ãðàäèåíò_254-2" data-name="Áåçûìÿííûé ãðàäèåíò 254" x1="305.15" y1="213.43" x2="307.19" y2="293.24" xlink:href="#_Áåçûìÿííûé_ãðàäèåíò_254"/>
    <linearGradient id="_Áåçûìÿííûé_ãðàäèåíò_254-3" data-name="Áåçûìÿííûé ãðàäèåíò 254" x1="-13.69" y1="249.85" x2="89.39" y2="249.85" xlink:href="#_Áåçûìÿííûé_ãðàäèåíò_254"/>
    <linearGradient id="_Áåçûìÿííûé_ãðàäèåíò_254-4" data-name="Áåçûìÿííûé ãðàäèåíò 254" x1="567.28" y1="223.76" x2="569.45" y2="254.54" xlink:href="#_Áåçûìÿííûé_ãðàäèåíò_254"/>
    <linearGradient id="linear-gradient-3" x1="476.23" y1="221.29" x2="567.29" y2="221.29" gradientTransform="translate(979.67) rotate(-180) scale(1 -1)" gradientUnits="userSpaceOnUse">
      <stop offset="0" stop-color="#5e2c47"/>
      <stop offset="1" stop-color="#75403d"/>
    </linearGradient>
    <radialGradient id="_Áåçûìÿííûé_ãðàäèåíò_256" data-name="Áåçûìÿííûé ãðàäèåíò 256" cx="380.34" cy="112.74" fx="380.34" fy="112.74" r="47.09" gradientTransform="translate(-369.67 1.64) scale(1.75 1.67)" gradientUnits="userSpaceOnUse">
      <stop offset="0" stop-color="#db2a27"/>
      <stop offset=".03" stop-color="#d32825"/>
      <stop offset=".39" stop-color="#791715"/>
      <stop offset=".68" stop-color="#380a09"/>
      <stop offset=".89" stop-color="#0f0202"/>
      <stop offset="1" stop-color="#000"/>
    </radialGradient>
    <radialGradient id="_Áåçûìÿííûé_ãðàäèåíò_261" data-name="Áåçûìÿííûé ãðàäèåíò 261" cx="380.25" cy="113.72" fx="380.25" fy="113.72" r="33.09" gradientTransform="translate(-369.67 1.64) scale(1.75 1.67)" gradientUnits="userSpaceOnUse">
      <stop offset="0" stop-color="#e8a234"/>
      <stop offset=".09" stop-color="#dd9a31"/>
      <stop offset=".25" stop-color="#c0862b"/>
      <stop offset=".47" stop-color="#916520"/>
      <stop offset=".72" stop-color="#4f3711"/>
      <stop offset="1" stop-color="#000"/>
    </radialGradient>
  </defs>
  <g class="cls-40">
    <g id="_Ñëîé_1" data-name="Ñëîé 1">
      <g class="cls-45">
        <rect class="cls-48" x="-34.58" y="-4" width="683.66" height="222.67"/>
        <g class="cls-41">
          <path class="cls-35" d="M-33.08,160.61s180.86,9.22,250.17,13.51c48.92,3.03,121.1,9.59,121.1,9.59,0,0,25.58-4.49,36.2-3.46,61.43,5.96,163.67-.23,163.67-.23l-53.38,2.81s-210.52,.92-336.68,2.86c0,0,111.72,5.01,162.66,4.24l58.2,.94-401.94,1.56v-31.83Z"/>
          <path class="cls-27" d="M148,185.69l-86.5-1.5s210.22-3.88,273.86-.46l-187.36,1.96Z"/>
          <path class="cls-10" d="M103.83,191.9s188.92-3.88,265.03-1.03l-265.03,1.03Z"/>
        </g>
        <g>
          <g class="cls-38">
            <polygon class="cls-9" points="296.89 190.93 260.33 526.97 333.44 526.97 296.89 190.93"/>
            <polygon class="cls-15" points="296.89 190.93 508.65 454.4 560.35 402.7 296.89 190.93"/>
            <polygon class="cls-22" points="296.89 190.93 632.93 227.49 632.93 154.38 296.89 190.93"/>
            <polygon class="cls-25" points="296.89 190.93 560.35 -20.83 508.65 -72.53 296.89 190.93"/>
            <polygon class="cls-19" points="296.89 190.93 333.44 -145.11 260.33 -145.11 296.89 190.93"/>
            <polygon class="cls-20" points="296.89 190.93 85.12 -72.53 33.43 -20.83 296.89 190.93"/>
            <polygon class="cls-18" points="296.89 190.93 -39.15 154.38 -39.15 227.49 296.89 190.93"/>
            <polygon class="cls-26" points="296.89 190.93 33.43 402.7 85.12 454.4 296.89 190.93"/>
          </g>
          <g>
            <polygon class="cls-13" points="296.89 190.87 375.39 454.23 505.44 369.84 296.89 190.87"/>
            <polygon class="cls-16" points="296.89 190.87 560.26 112.36 475.86 -17.69 296.89 190.87"/>
            <polygon class="cls-17" points="296.89 190.87 218.38 -72.5 88.33 11.89 296.89 190.87"/>
            <polygon class="cls-14" points="296.89 190.87 33.52 269.37 117.92 399.42 296.89 190.87"/>
          </g>
          <g>
            <polygon class="cls-12" points="300 189.09 180.93 528.39 383.52 538.84 300 189.09"/>
            <polygon class="cls-28" points="300 189.09 639.3 308.16 649.76 105.57 300 189.09"/>
            <polygon class="cls-8" points="300 189.09 419.07 -150.22 217.09 -158.14 300 189.09"/>
            <polygon class="cls-21" points="300 189.09 -39.3 70.02 -49.76 272.6 300 189.09"/>
          </g>
        </g>
        <circle class="cls-44" cx="298.67" cy="201.43" r="38.87"/>
        <polygon class="cls-32" points="645.01 145.4 -33.08 153.11 221.71 154.02 178.73 155.39 121.28 157.1 645.96 156.72 645.01 145.4"/>
        <rect class="cls-1" x="-.95" y="205.34" width="615.95" height="73.47"/>
        <g>
          <path class="cls-39" d="M405.24,244.72v.78l5.28-.07,2.45-6.8c2.36-.18,11.84-.82,28.48-.82,19.41,0,48.01,4.9,48.01,4.9l13.98-2.79-1.83-3.79-.1-.21-1.3-2.69-.17-.36-2.1-4.36-74.95-2.01h-3.96c-6.75,5.27-11.15,11.41-13.78,18.21h0Zm4.25-.3l-.54,.04h.05s.15-.01,.15-.01l.33-.02Z"/>
          <g class="cls-42">
            <path class="cls-2" d="M477.36,230.58c4.24-.66,8.53-.76,12.84-.85,2.15-.05,4.3-.09,6.44-.27,1.12-.09,2.24-.21,3.34-.4,.26-.05,.53-.09,.78-.14,.33-.08,.54-.11,.26-.33-.34-.26-.91-.31-1.26-.58-.11-.08-.04-.27,.14-.25,.48,.04,.9,.21,1.34,.36,.34,.12,.71,.23,.75,.55,.09,.63-1.12,.77-1.69,.87-2.44,.43-4.9,.68-7.4,.82-5.12,.27-10.31-.03-15.39,.63-.35,.05-.51-.34-.15-.4Z"/>
            <path class="cls-2" d="M441.65,231.75c5.04-.21,10.09-.28,15.14-.39,4.96-.11,9.92-.36,14.87-.53,.09,0,.11,.1,.02,.12-2.31,.51-4.8,.43-7.18,.47-2.52,.04-5.05,.04-7.57,.12-5.09,.17-10.18,.38-15.28,.45-.21,0-.21-.23,0-.24Z"/>
            <path class="cls-2" d="M415.27,231.51c.84,.09,1.65,.26,2.51,.32,.79,.05,1.58,.06,2.38,.06,1.71,.01,3.41,.05,5.12,.05,3.41,0,6.82-.12,10.23-.09,.14,0,.18,.17,.03,.18-3.5,.39-7.01,.45-10.54,.43-1.75-.01-3.5-.03-5.25-.13-1.46-.08-3.27-.11-4.53-.73-.07-.03-.03-.11,.05-.1Z"/>
            <path class="cls-2" d="M413.84,230.49c.08-.08,.17-.15,.27-.21,.06-.04,.12-.08,.19-.11,.07-.03,.15-.05,.22-.07,.12-.04,.25-.07,.38-.08,.11,0,.22-.01,.34,0,.11,0,.2,.06,.21,.14,.02,.08-.05,.15-.15,.18,0,0-.01,0-.01,0,0,0-.01,0-.02,0-.02,0-.04,.02-.07,.02-.05,.02-.09,.04-.14,.06-.09,.04-.19,.07-.28,.11-.04,.02-.09,.04-.13,.07-.04,.02-.09,.04-.13,.06-.1,.04-.18,.09-.27,.13-.1,.05-.27,.04-.36-.03-.03-.03-.06-.06-.08-.1-.02-.05-.01-.13,.03-.17Z"/>
            <path class="cls-2" d="M495.33,231.43c.14,0,.28-.02,.42,0,.16,0,.31,.02,.48,0,.37-.03,.73-.11,1.09-.16,.81-.13,1.64-.21,2.46-.31,.21-.03,.31,.2,.09,.24-.89,.19-1.78,.4-2.68,.56-.59,.1-1.72,.4-1.98-.21-.02-.06,.04-.12,.12-.12Z"/>
            <path class="cls-2" d="M464.84,233.04c1.4-.06,2.79,.03,4.19,.04,1.46,.01,2.88-.14,4.33-.26,2.91-.24,5.84-.57,8.73-.94,.21-.03,.31,.2,.09,.25-1.47,.28-2.92,.62-4.41,.83-1.41,.2-2.84,.31-4.27,.39-1.48,.07-2.98,.02-4.47,.05-1.42,.02-2.82,.03-4.22-.18-.13-.02-.1-.17,.03-.17Z"/>
            <path class="cls-2" d="M436.25,233.94c.62-.13,1.24-.12,1.88-.14,.66-.01,1.33-.01,1.99-.01,1.33,0,2.66,.06,3.99,.11,.16,0,.16,.18,0,.19-1.33,.07-2.65,.14-3.99,.16-.67,.01-1.33,.02-1.99,.01-.64,0-1.26,0-1.88-.12-.14-.03-.14-.18,0-.21Z"/>
            <path class="cls-2" d="M405.71,231.74c.5-.41,1.07-.77,1.77-.97,.52-.15,1.47-.37,1.97-.13,.1,.05,.11,.16,0,.21-.21,.11-.37,.1-.62,.13-.36,.05-.7,.13-1.03,.24-.49,.16-.94,.35-1.33,.61,1.76,.56,3.73,.68,5.62,.81,1.05,.07,2.09,.14,3.14,.21,1.07,.08,2.15,.11,3.19,.3,.21,.04,.16,.27-.05,.28-1.12,.05-2.26-.06-3.38-.13-1.15-.07-2.31-.14-3.46-.21-2-.13-3.94-.32-5.75-.98-.18-.07-.19-.26-.06-.36Z"/>
          </g>
        </g>
        <path class="cls-34" d="M601.65,205.34v6.18c-5.48,.67-21.24,2.46-33.21,2.33-14.72-.16-19.31,.43-17.93,6.84,1.38,6.4-79.77,3.46-79.77,3.46,0,0,7.56,1.33,7.1,4.01-.43,2.48-17.38,.34-19.73,.04,1.7,.27,10.77,1.79,10.77,3.96,0,2.41-59.56,1.87-68.76-2-9.2-3.87,7.13-7.6,6.21-7.87-.92-.27-89.92,2.13-92.21-1.58-2.3-3.7,27.82-3.76,27.82-3.76,0,0-7.82,3.2-4.37,3.76,3.45,.56,56.4-1.96,55.88-6.86-.52-4.89-146.71-.11-147.87,2.83-1.1,2.81,12.18,2.87,13.27,2.87-1.91,.02-39.94,.48-39.94,3.6s28.46,3.81,27.9,4.41c-.56,.6-67.57-1.6-68.78,0-1.2,1.6,8.79,.4,9.15,1.2,.34,.8-81.41,2.2-82.27,.4-.86-1.8-36.56-2-40.53-1.6-3.38,.34-.87,1.99-.06,2.48-1.34-.74-8.22-4.59-8.22-5.68,0-1.21,67.61,4.4,69.68-1.21,2.07-5.6-22.6-4.2-22.94-5.4-.34-1.2,52.09-.2,45.85-5.31-4.76-3.9-102.68,2.91-148.49,6.33v-13.43H601.65Z"/>
        <path class="cls-34" d="M601.65,205.34v4.19h-169.32c5.67-.43,9.76-.95,10.78-1.59,4.37-2.72-197.76,1.44-197.76,1.44,0,0-159.36-3.71-161.2-1.95-.72,.69,.58,1.44,2.43,2.09H.19v-4.19H601.65Z"/>
        <g>
          <path class="cls-34" d="M365.5,228.86s-15.87,1.35-15.87,2.37,45.88,.79,45.88,0-10.69-1.47-10.69-1.47c0,0,2.33,.28,1.47,1.02-.86,.73-24.58,1.36-20.78-1.92Z"/>
          <path class="cls-34" d="M282.44,224.46s-22.91,.47-22.91,.83,66.23,.28,66.23,0-15.44-.51-15.44-.51c0,0,3.36,.1,2.12,.36-1.24,.26-35.48,.48-30-.67Z"/>
          <path class="cls-34" d="M525.18,227.33s-35.94,1.35-35.94,2.37,103.92,.79,103.92,0-24.22-1.47-24.22-1.47c0,0,5.27,.28,3.32,1.02-1.95,.73-55.67,1.36-47.08-1.92Z"/>
          <path class="cls-34" d="M483.64,231.47s-12.56,.68-12.56,1.19,36.31,.4,36.31,0-8.46-.73-8.46-.73c0,0,1.84,.14,1.16,.51-.68,.37-19.45,.68-16.45-.96Z"/>
          <path class="cls-34" d="M74.27,232.54s27.71,3.2,35.64,2.86c7.93-.34,.86-1.42,.86-1.42,0,0,55.19-.34,56.57,1.44,1.38,1.78-66.8,3.06-93.07-2.89Z"/>
          <path class="cls-34" d="M-73.02,224.99s38.28,4.42,49.24,3.96c10.96-.47,1.19-1.96,1.19-1.96,0,0,76.24-.47,78.15,2,1.91,2.46-92.28,4.23-128.57-3.99Z"/>
          <path class="cls-7" d="M185.51,233.2c-.52,2.68,37.94,5.18,45.53,3.06,7.59-2.12,9.66-1.13,9.66-1.13,0,0-12.42,5.97,47.26,5.5,59.67-.47,62.09-4.37,62.09-4.37l43.12-1.01-61.57-.47s9.49,.35,1.03,2.15c-8.45,1.8-73.47,5.92-71.57,1.17,1.9-4.75,31.56-3.95,31.56-3.95l-81.58-.94s15.33-.21,15.35,1.73c.02,1.95-35.31-.28-38.33-.91-3.02-.63-2.54-.83-2.54-.83Z"/>
          <path class="cls-11" d="M-15.82,262.59s161.91-10.28,163.22-7.07c1.31,3.21-20.46,5.14,0,7.07,20.46,1.93,132.21-3.19,136.35-3.84s81.13,8.34,117.14,3.84,25.15-7.69,25.15-7.69c0,0,89.35,6.4,108.06,4.48,18.7-1.93-28.58-4.48-28.58-4.48l127.48-4-3.01,36.1-649.95-3.85,4.14-20.56Z"/>
          <path class="cls-23" d="M160.44,254.67c1.2-.44,52.26-3.21,52.43-2.14,.17,1.07-71.57,9.21-52.43,2.14Z"/>
          <path class="cls-24" d="M-9.52,245.74s98.56,1.64,98.91,3.57c.34,1.93-103.08,4.64-103.08,4.64l4.17-8.21Z"/>
          <path class="cls-23" d="M94.39,248.89c-.09,1.28,41.13,3.43,42,1.28,.86-2.14-25.09-1.71-25.09-1.71,0,0,15.09-.43,15-1.07-.09-.64-31.91,1.5-31.91,1.5Z"/>
          <path class="cls-3" d="M266.81,247.88c1.61,2.32,46.56,5.17,58.28,4.71,11.73-.45,16.52-2.97,16.52-2.97,0,0,16.79,3.32,22.31,1.5,5.52-1.82,2.33-3.01,2.33-3.01,0,0,11.51,1.53-4.36,1.53s-15.06,0-15.06,0l-80.02-1.77Z"/>
          <path class="cls-3" d="M398.88,252.83c-2.65,.04,23.23,.91,24.26-.91s2.64-2.83,2.64-2.83c0,0-12.07,3.51-26.9,3.74Z"/>
          <path class="cls-23" d="M212.35,254.06s-5.69,1.31-5.09,2.74c.6,1.43,30.53,.78,30.44,0-.09-.78-32.6,2.09-25.35-2.74Z"/>
          <ellipse class="cls-2" cx="230.64" cy="253.58" rx="5.17" ry=".48"/>
          <path class="cls-23" d="M170.16,250.79c0,.29-2.26,.52-5.06,.52s-5.06-.23-5.06-.52,2.26-.52,5.06-.52,5.06,.23,5.06,.52Z"/>
          <path class="cls-3" d="M248.92,250.53c0,.14-.77,.26-1.72,.26s-1.72-.12-1.72-.26,.77-.26,1.72-.26,1.72,.12,1.72,.26Z"/>
          <path class="cls-23" d="M292.46,245.13c0,.53-4.07,.95-9.08,.95s-9.08-.43-9.08-.95,4.07-.95,9.08-.95,9.08,.43,9.08,.95Z"/>
          <path class="cls-23" d="M446.43,249.57c0,.26-2.32,.48-5.17,.48s-5.17-.21-5.17-.48,2.32-.48,5.17-.48,5.17,.21,5.17,.48Z"/>
          <ellipse class="cls-2" cx="375.72" cy="246.78" rx="5.06" ry=".52"/>
          <path class="cls-3" d="M368,253.59c0,.18-1.42,.33-3.17,.33s-3.17-.15-3.17-.33,1.42-.33,3.17-.33,3.17,.15,3.17,.33Z"/>
          <path class="cls-3" d="M360,256.45c0,.1-.3,.19-.67,.19s-.67-.08-.67-.19,.3-.19,.67-.19,.67,.08,.67,.19Z"/>
          <path class="cls-3" d="M374,253.13c0-.07-.52-.13-1.17-.13s-1.17,.06-1.17,.13,.52,.13,1.17,.13,1.17-.06,1.17-.13Z"/>
          <path class="cls-3" d="M374,252.45c0,.1-.3,.19-.67,.19s-.67-.08-.67-.19,.3-.19,.67-.19,.67,.08,.67,.19Z"/>
          <path class="cls-3" d="M459.54,246.52c0,.14-.77,.26-1.72,.26s-1.72-.12-1.72-.26,.77-.26,1.72-.26,1.72,.12,1.72,.26Z"/>
          <path class="cls-23" d="M502.08,246.12c0,.53-4.07,.95-9.08,.95s-9.08-.43-9.08-.95,4.07-.95,9.08-.95,9.08,.43,9.08,.95Z"/>
          <ellipse class="cls-29" cx="500.11" cy="251.05" rx="5.17" ry=".48"/>
          <ellipse class="cls-2" cx="433.57" cy="247.75" rx="5.06" ry=".52"/>
          <path class="cls-3" d="M394.05,253.78c0,.25-.8,.45-1.8,.45s-1.8-.2-1.8-.45,.8-.45,1.8-.45,1.8,.2,1.8,.45Z"/>
          <path class="cls-3" d="M396.57,254.46c0,.09-.28,.16-.63,.16s-.63-.07-.63-.16,.28-.16,.63-.16,.63,.07,.63,.16Z"/>
          <path class="cls-23" d="M518.4,248.01c0,.14-.77,.26-1.72,.26s-1.72-.12-1.72-.26,.77-.26,1.72-.26,1.72,.12,1.72,.26Z"/>
          <path class="cls-23" d="M560.94,247.6c0,.53-4.07,.95-9.08,.95s-9.08-.43-9.08-.95,4.07-.95,9.08-.95,9.08,.43,9.08,.95Z"/>
          <path class="cls-23" d="M422.58,268.02c0,.53-4.07,.95-9.08,.95s-9.08-.43-9.08-.95,4.07-.95,9.08-.95,9.08,.43,9.08,.95Z"/>
          <ellipse class="cls-29" cx="472.35" cy="269.5" rx="9.08" ry=".95"/>
          <ellipse class="cls-29" cx="242.66" cy="264.84" rx="13.16" ry="1.38"/>
          <path class="cls-23" d="M183.72,270.1c0,.33-2.55,.6-5.7,.6s-5.7-.27-5.7-.6,2.55-.6,5.7-.6,5.7,.27,5.7,.6Z"/>
          <path class="cls-23" d="M341.11,267c0,.76-5.89,1.38-13.16,1.38s-13.16-.62-13.16-1.38,5.89-1.38,13.16-1.38,13.16,.62,13.16,1.38Z"/>
          <path class="cls-6" d="M607.99,236.92l-86,1.58s49.67-.9,51.97,2.16c2.3,3.05-14.95,3.28-14.95,3.28l56.11,1.23-7.13-8.24Z"/>
        </g>
        <g>
          <polygon class="cls-33" points="170.81 128.1 178.33 136.47 181.02 136.47 186.33 130.79 180.86 134.1 170.81 128.1"/>
          <polygon class="cls-33" points="112.65 132.85 116.27 137.03 117.95 137.03 124.53 131.16 115.84 135.41 112.65 132.85"/>
          <polygon class="cls-33" points="159.13 116.55 165.53 119.88 168.33 112.49 163.73 118.3 159.13 116.55"/>
          <polygon class="cls-33" points="181.02 136.47 186.13 136.47 186.13 135.05 180.02 135.76 181.02 136.47"/>
          <polygon class="cls-33" points="110.67 160.34 103.16 168.71 100.47 168.71 95.16 163.02 101.02 166.11 110.67 160.34"/>
          <polygon class="cls-33" points="100.47 168.71 95.36 168.71 95.36 167.29 101.47 168 100.47 168.71"/>
          <polygon class="cls-33" points="164.62 119.4 165.65 121.04 166.91 120.22 165.22 119.4 164.62 119.4"/>
          <polygon class="cls-33" points="89.98 136.78 82.84 140.5 79.72 132.26 84.85 138.74 89.98 136.78"/>
          <polygon class="cls-33" points="83.85 139.97 82.71 141.79 81.3 140.88 83.18 139.97 83.85 139.97"/>
          <polygon class="cls-33" points="116.43 136.47 117.46 137.97 118.59 137.97 117.95 137.03 116.43 136.47"/>
          <polygon class="cls-33" points="131.8 129.23 142.96 127.85 140.91 129.23 135.33 134.47 134.19 130.26 131.12 130.26 131.8 129.23"/>
        </g>
        <g>
          <path class="cls-4" d="M405.24,209.52c2.63,7.91,7.03,15.06,13.78,21.19h3.96l-10.61-14.16-1.86-6.59-1.37-.11h-.15s-1.43-.13-1.43-.13l-.26-.02-2.08-.17Z"/>
          <path class="cls-47" d="M412.38,216.56c.4,1.43,1.02,2.85,1.82,4.25,.12,.21,.24,.41,.36,.61,.77,1.26,1.69,2.5,2.74,3.73,.16,.19,.32,.38,.49,.57,1.5,1.69,3.25,3.36,5.19,5l74.95-2.34,2.1-5.07,.17-.42,1.3-3.13,.1-.24,1.83-4.41-13.98-3.25s-28.6,5.7-48.01,5.7-29.08-1.01-29.08-1.01Z"/>
          <path class="cls-43" d="M412.38,216.56s8.76,4.74,31.72,6.23c21.81,1.42,59.34-7.68,59.34-7.68l-13.98-3.25s-28.6,5.7-48.01,5.7-29.08-1.01-29.08-1.01Z"/>
          <path class="cls-37" d="M489.35,212.72l10.65,2.45s-34.9,6.74-52.63,6.74-31.1-4.59-31.1-4.59c0,0,14.47,.98,29.21,.98s43.88-5.57,43.88-5.57Z"/>
          <polygon class="cls-36" points="479.94 216.37 483.96 217.97 478.48 218.82 475.39 217.09 479.94 216.37"/>
          <polygon class="cls-36" points="456.36 219.97 451.76 220.34 452.12 221.78 457.37 221.41 456.36 219.97"/>
          <polygon class="cls-43" points="410.52 209.96 410.52 208.7 405.24 208.62 405.24 209.52 410.52 209.96"/>
          <polygon class="cls-49" points="410.52 208.7 412.97 216.61 412.97 216.84 412.38 216.56 410.52 209.96 410.52 208.7"/>
          <polygon class="cls-36" points="457.9 224.59 457.9 224.69 463.23 224.37 468.34 223.99 486.62 222.5 495.13 221.35 499.27 220.4 501.51 219.76 501.61 219.52 498.81 220.26 494.01 221.07 476.12 223.05 467.06 223.86 462.59 224.18 457.9 224.59"/>
          <polygon class="cls-36" points="452.82 224.74 449.01 224.91 452.85 224.85 452.82 224.74"/>
          <polygon class="cls-36" points="449.01 224.91 441.88 225.01 443.72 225.14 449.01 224.91"/>
          <path class="cls-36" d="M414.2,220.81c.12,.21,.24,.41,.36,.61l7.17,2.08,15.15,1.58,5-.07-13.57-.94-14.11-3.26Z"/>
          <polygon class="cls-36" points="476.96 226 476.96 226.24 482.75 226.1 487.85 225.8 492.71 225.39 497.63 224.21 500.04 223.31 500.21 222.89 496.72 223.86 491.92 224.69 486.87 225.46 476.96 226"/>
          <polygon class="cls-36" points="444.01 226.6 449.78 226.54 455.45 226.53 461.09 226.39 466.67 226.05 466.69 226.19 455.55 226.6 449.78 226.68 444.01 226.71 444.01 226.6 444.01 226.6"/>
          <path class="cls-36" d="M417.3,225.15c.16,.19,.32,.38,.49,.57l.61,.12,2.7,.41,5.28,.61,11.12,.34v-.12l-5.57-.27-5.45-.43-5.67-.68-2.7-.42-.83-.13Z"/>
          <polygon class="cls-36" points="407.32 209.7 408.54 213.65 410.36 218.01 415.75 226.77 415.97 226.64 410.63 217.96 408.83 213.27 407.58 209.72 407.32 209.7"/>
          <polygon class="cls-36" points="409 209.84 410.94 217.23 411.14 217.17 409.15 209.85 409 209.84"/>
        </g>
        <g>
          <polygon class="cls-31" points="260.61 206.77 256.21 211.37 337.62 211.37 261.2 212.95 305.75 214.88 247.87 219.33 292.75 221.6 283.34 219.71 344.01 214.88 302.52 212.95 345.68 211.47 337.83 208.05 260.61 206.77"/>
          <polygon class="cls-31" points="279.52 224.19 317.42 225.23 290.74 225.67 279.52 224.19"/>
        </g>
        <g>
          <ellipse class="cls-30" cx="295.85" cy="190.01" rx="82.4" ry="78.68"/>
          <ellipse class="cls-5" cx="295.68" cy="191.64" rx="57.9" ry="55.29"/>
        </g>
      </g>
    </g>
  </g>
</svg>